<svg xmlns="http://www.w3.org/2000/svg" viewBox="0 0 500 500"><g id="freepik--background-complete--inject-10"><rect x="281.95" y="40.22" width="191.1" height="343.31" style="fill:#ebebeb"></rect><rect x="289.59" y="50.18" width="173.86" height="323.12" style="fill:#fafafa"></rect><polygon points="481.14 386.62 473.06 383.52 473.06 34.4 481.14 34.4 481.14 386.62" style="fill:#e0e0e0"></polygon><rect x="289.59" y="143.13" width="177.64" height="3.44" style="fill:#e0e0e0"></rect><rect x="289.59" y="220.08" width="177.64" height="3.44" style="fill:#e0e0e0"></rect><rect x="289.59" y="297.03" width="177.64" height="3.44" style="fill:#e0e0e0"></rect><rect x="257.72" y="259.26" width="237.61" height="8.78" transform="translate(112.87 640.18) rotate(-90)" style="fill:#e0e0e0"></rect><rect x="323.07" y="50.18" width="3.98" height="94.67" style="fill:#e0e0e0"></rect><rect x="357.39" y="50.18" width="3.98" height="94.67" style="fill:#e0e0e0"></rect><rect x="391.71" y="50.18" width="3.98" height="94.67" style="fill:#e0e0e0"></rect><rect x="426.03" y="50.18" width="3.98" height="94.67" style="fill:#e0e0e0"></rect><rect x="273.87" y="34.4" width="8.08" height="351.25" style="fill:#e0e0e0"></rect><rect x="273.87" y="30.85" width="207.27" height="9.37" style="fill:#e0e0e0"></rect><rect x="268.14" y="387.78" width="218.48" height="8.73" style="fill:#e0e0e0"></rect><polygon points="473.06 383.52 486.61 387.77 268.14 387.77 281.95 383.52 473.06 383.52" style="fill:#ebebeb"></polygon><rect x="14.52" y="182.2" width="47.45" height="47.45" style="fill:#f5f5f5"></rect><rect x="64.08" y="182.2" width="47.45" height="47.45" style="fill:#f5f5f5"></rect><rect x="113.9" y="182.54" width="47.45" height="47.45" style="fill:#f5f5f5"></rect><rect x="163.92" y="182.2" width="47.45" height="47.45" style="fill:#f5f5f5"></rect><rect x="213.48" y="182.2" width="47.45" height="47.45" style="fill:#f5f5f5"></rect><rect x="14.52" y="231.91" width="47.45" height="47.45" style="fill:#f5f5f5"></rect><rect x="64.08" y="231.91" width="47.45" height="47.45" style="fill:#f5f5f5"></rect><rect x="113.9" y="232.25" width="47.45" height="47.45" style="fill:#f5f5f5"></rect><rect x="163.92" y="231.91" width="47.45" height="47.45" style="fill:#f5f5f5"></rect><rect x="213.48" y="231.91" width="47.45" height="47.45" style="fill:#f5f5f5"></rect><rect x="14.52" y="282.59" width="47.45" height="47.45" style="fill:#f5f5f5"></rect><rect x="64.08" y="282.59" width="47.45" height="47.45" style="fill:#f5f5f5"></rect><rect x="113.9" y="282.92" width="47.45" height="47.45" style="fill:#f5f5f5"></rect><rect x="163.92" y="282.59" width="47.45" height="47.45" style="fill:#f5f5f5"></rect><rect x="213.48" y="282.59" width="47.45" height="47.45" style="fill:#f5f5f5"></rect><path d="M60.49,430.31a12.29,12.29,0,0,0-10.36-14,1.26,1.26,0,0,0-.88.1,1.28,1.28,0,0,0-.33,1.19,14.88,14.88,0,0,0,11.55,13.1" style="fill:#e0e0e0"></path><path d="M43.27,453c3.1,6.39,7.55,10.69,13.07,10.9,1.1,0,1.94-.69,3-.75a7.16,7.16,0,0,1,1.77.66A2.34,2.34,0,0,0,62,464c5.7-.3,10.56-4.31,13.83-11,4.56-9.4,3.15-19.49-3.14-22.55a15,15,0,0,0-2.57-1,10.83,10.83,0,0,0-3.13-.37,23.55,23.55,0,0,0-7.15,1.62l-.31.11c-5.11-2.25-9.19-2.27-13.15-.35C40.1,433.5,38.71,443.59,43.27,453Z" style="fill:#ebebeb"></path><path d="M43.38,443.47a4.74,4.74,0,0,1-.52-1.89,10,10,0,0,1,.56-4.69A10.1,10.1,0,0,1,46.05,433a5,5,0,0,1,1.62-1.1c0,.07-.58.47-1.41,1.32a11.13,11.13,0,0,0-3.1,8.39C43.24,442.73,43.45,443.45,43.38,443.47Z" style="fill:#fafafa"></path><path d="M44.53,447.94c-.11,0-.32-.42-.45-1s-.14-1.06,0-1.09.32.42.46,1S44.65,447.91,44.53,447.94Z" style="fill:#fafafa"></path><path d="M73.49,415c0,.07-1.18.53-2.95,1.59a22.65,22.65,0,0,0-3,2.1,25,25,0,0,0-3.11,3.14A26,26,0,0,0,62,425.46a23.66,23.66,0,0,0-1.48,3.3c-.69,1.95-.89,3.22-1,3.21a3.35,3.35,0,0,1,.09-.9,10.19,10.19,0,0,1,.21-1.05c.11-.4.2-.86.38-1.36a21.63,21.63,0,0,1,1.41-3.39,24.17,24.17,0,0,1,2.49-3.76,23.32,23.32,0,0,1,3.19-3.18,21.29,21.29,0,0,1,3-2.06c.45-.27.89-.46,1.26-.64a10.61,10.61,0,0,1,1-.41A3.59,3.59,0,0,1,73.49,415Z" style="fill:#e0e0e0"></path><g style="opacity:0.6000000000000001"><rect x="88.31" y="395.69" width="34.24" height="66.84" rx="4.81" style="fill:#f5f5f5"></rect></g><path d="M115.59,458.2H95.36a4.49,4.49,0,0,1-4.48-4.48V413.46l9.47,1.57a25.48,25.48,0,0,0,7.6.1l12.12-1.67v40.26A4.48,4.48,0,0,1,115.59,458.2Z" style="fill:#ebebeb"></path><path d="M122.45,396.06a7.68,7.68,0,0,1-1.28.45c-.84.27-2.07.6-3.6.93a53.29,53.29,0,0,1-5.46.85,59,59,0,0,1-18.91-1.24c-1.53-.35-2.76-.67-3.6-.93a7.88,7.88,0,0,1-1.29-.43,8.12,8.12,0,0,1,1.33.27c.85.21,2.09.48,3.62.79a71.5,71.5,0,0,0,12.11,1.36,65.18,65.18,0,0,0,6.71-.22c2-.2,3.89-.46,5.43-.76s2.77-.56,3.61-.78A8.85,8.85,0,0,1,122.45,396.06Z" style="fill:#e0e0e0"></path><path d="M90.94,401.9c.12,0,.22,11.5.22,25.69s-.1,25.69-.22,25.69-.22-11.5-.22-25.69S90.82,401.9,90.94,401.9Z" style="fill:#e0e0e0"></path><path d="M113.77,458.47c0,.12-4.1.22-9.16.22s-9.17-.1-9.17-.22,4.11-.21,9.17-.21S113.77,458.35,113.77,458.47Z" style="fill:#e0e0e0"></path><path d="M91,413.63A16.92,16.92,0,0,0,101.43,419c6.66.77,13.06-2.46,19-5.58-9.79,1.38-20,2.74-29.4-.24" style="fill:#fff"></path><g style="opacity:0.6000000000000001"><path d="M107.14,429.93c-3,2-5.44,4.87-8.5,6.83s-7.26,2.87-10.2.73v4.62c2.94,2.14,7.14,1.23,10.2-.73s5.48-4.81,8.5-6.83A19.2,19.2,0,0,1,122.55,432V427.4A19.2,19.2,0,0,0,107.14,429.93Z" style="fill:#fff"></path></g><path d="M116.38,462.52a11.43,11.43,0,0,0,1.33-.2,6.16,6.16,0,0,0,3.24-2,5.81,5.81,0,0,0,1.27-2.46,13.27,13.27,0,0,0,.18-3.35c0-2.46,0-5.26,0-8.38,0-12.52-.07-30.1-.11-50.46l.3.3H88.31l.31-.31c0,12.89,0,25.1,0,36.17,0,5.53,0,10.77,0,15.68,0,2.45,0,4.81,0,7.09a12.86,12.86,0,0,0,.2,3.26,5.89,5.89,0,0,0,1.5,2.64,6,6,0,0,0,2.47,1.52,8.84,8.84,0,0,0,2.8.28l5.28,0,8.43.06,5.31,0,1.38,0a2.7,2.7,0,0,1,.47,0,2.7,2.7,0,0,1-.47,0l-1.38,0-5.31.06-8.43.05-5.28,0a9.86,9.86,0,0,1-2.92-.27,6.62,6.62,0,0,1-2.66-1.61A6.45,6.45,0,0,1,88.3,458a13.17,13.17,0,0,1-.23-3.37q0-3.42,0-7.09c0-4.91,0-10.15,0-15.68,0-11.07,0-23.28,0-36.17v-.32h6.49l28.07,0h.3v.3c0,20.36-.09,37.94-.11,50.46,0,3.12,0,5.92,0,8.38a13.06,13.06,0,0,1-.23,3.42,6.22,6.22,0,0,1-4.72,4.47A4.52,4.52,0,0,1,116.38,462.52Z" style="fill:#e0e0e0"></path></g><g id="freepik--Table--inject-10"><path d="M479.29,463.09c0,.15-103.56.26-231.28.26s-231.3-.11-231.3-.26,103.54-.26,231.3-.26S479.29,463,479.29,463.09Z" style="fill:#263238"></path></g><g id="freepik--Fruits--inject-10"><path d="M418.68,371.87s-3.44,5.43-2.85,5.86,1.32.95,1.47.59,3-4.77,3.05-5.58c0-.53-.93-1.73-1.67-.87" style="fill:#6f4439;fill-rule:evenodd"></path><path d="M399.28,379.7c-6.58,6.27-5.06,5.64-17.54,14.45s-18.15,27.44,2.88,38.94S417,428.41,418.24,417s5.49-20.49,5.65-29.7c.18-10.33-13.15-18.51-24.61-7.58" style="fill:#FF725E;fill-rule:evenodd"></path><g style="opacity:0.30000000000000004"><path d="M399.28,379.7c-6.58,6.27-5.06,5.64-17.54,14.45s-18.15,27.44,2.88,38.94S417,428.41,418.24,417s5.49-20.49,5.65-29.7c.18-10.33-13.15-18.51-24.61-7.58" style="fill-rule:evenodd"></path></g><g style="opacity:0.2"><path d="M418.2,416.9c1.2-11.43,5.5-20.49,5.66-29.71a12.72,12.72,0,0,0-8.69-12,7.5,7.5,0,0,1,2.9,6.6c-.79,6.8-6.92,26.17-11.89,39.21-4.22,11-19.07,10.92-27.59,8a37.09,37.09,0,0,0,6,4.05C405.62,444.51,417,428.33,418.2,416.9Z" style="fill-rule:evenodd"></path></g><g style="opacity:0.2"><path d="M395,427.23a1.24,1.24,0,0,0-.14-.49.84.84,0,0,0-.29-.3,2,2,0,0,0-2.22.29,1.25,1.25,0,0,0-.43.48.77.77,0,0,0,.2.89,2.12,2.12,0,0,0,1.39.59,1.38,1.38,0,0,0,1-.29A1.57,1.57,0,0,0,395,427.23Z" style="fill-rule:evenodd"></path></g><g style="opacity:0.2"><path d="M376.19,408.75a1.59,1.59,0,0,0,.6-.28,1.51,1.51,0,0,0,.42-.45,3.2,3.2,0,0,0,.27-3,1,1,0,0,0-.43-.53c-.38-.17-.8.12-1.08.42a4.56,4.56,0,0,0-1.05,2,1.79,1.79,0,0,0,.07,1.25A1.16,1.16,0,0,0,376.19,408.75Z" style="fill-rule:evenodd"></path></g><g style="opacity:0.2"><path d="M386.44,396.73a1.37,1.37,0,0,0,.57.19,1.35,1.35,0,0,0,.53,0,2.63,2.63,0,0,0,1.78-2,1.07,1.07,0,0,0,0-.66.91.91,0,0,0-1-.4,3.47,3.47,0,0,0-1.81.75,1.54,1.54,0,0,0-.61.95A1.3,1.3,0,0,0,386.44,396.73Z" style="fill-rule:evenodd"></path></g><g style="opacity:0.30000000000000004"><path d="M408.42,380a1.42,1.42,0,0,0,.57.19,1.33,1.33,0,0,0,.53,0,2.63,2.63,0,0,0,1.78-2,1,1,0,0,0,0-.66.93.93,0,0,0-1-.41,3.49,3.49,0,0,0-1.81.76,1.48,1.48,0,0,0-.61.95A1.3,1.3,0,0,0,408.42,380Z" style="fill:#fff;fill-rule:evenodd"></path></g><g style="opacity:0.2"><path d="M385.45,401.64a.8.8,0,0,0,.34.11.65.65,0,0,0,.31,0,1.56,1.56,0,0,0,1.06-1.18.58.58,0,0,0,0-.39.54.54,0,0,0-.58-.25,2.09,2.09,0,0,0-1.07.45.94.94,0,0,0-.37.57A.79.79,0,0,0,385.45,401.64Z" style="fill-rule:evenodd"></path></g><g style="opacity:0.2"><path d="M379.1,401a.8.8,0,0,0,.34.11.65.65,0,0,0,.31,0,1.56,1.56,0,0,0,1.06-1.18.58.58,0,0,0,0-.39.52.52,0,0,0-.58-.24,2,2,0,0,0-1.07.44.91.91,0,0,0-.36.57A.76.76,0,0,0,379.1,401Z" style="fill-rule:evenodd"></path></g><g style="opacity:0.2"><path d="M390,400.55a1,1,0,0,0,.34.12.8.8,0,0,0,.31,0,1.54,1.54,0,0,0,1.06-1.18.58.58,0,0,0,0-.39.53.53,0,0,0-.58-.24,2,2,0,0,0-1.07.45,1,1,0,0,0-.37.56A.78.78,0,0,0,390,400.55Z" style="fill-rule:evenodd"></path></g><g style="opacity:0.2"><path d="M414.09,422a.74.74,0,0,0,.36,0,1,1,0,0,0,.29-.11,1.55,1.55,0,0,0,.66-1.44.62.62,0,0,0-.13-.37.53.53,0,0,0-.62-.07,2,2,0,0,0-.9.74.91.91,0,0,0-.18.65A.8.8,0,0,0,414.09,422Z" style="fill-rule:evenodd"></path></g><g style="opacity:0.2"><path d="M399.19,432.71a1.62,1.62,0,0,0-.32-.58,1.68,1.68,0,0,0-.47-.41,3.33,3.33,0,0,0-3-.19,1,1,0,0,0-.51.44c-.15.38.16.79.49,1.06a5,5,0,0,0,2.1,1,1.81,1.81,0,0,0,1.26-.11A1.09,1.09,0,0,0,399.19,432.71Z" style="fill-rule:evenodd"></path></g><g style="opacity:0.2"><path d="M400.82,423.14a.72.72,0,0,1,.29.06,1.15,1.15,0,0,1,.43.28.42.42,0,0,1,0,.54.44.44,0,0,1-.34,0,1.33,1.33,0,0,1-.38-.18.73.73,0,0,1-.25-.33.32.32,0,0,1,.15-.34Z" style="fill-rule:evenodd"></path></g><g style="opacity:0.2"><path d="M410,422.2a.71.71,0,0,1,.28.06,1.15,1.15,0,0,1,.43.28.42.42,0,0,1,0,.54.44.44,0,0,1-.34,0,1.27,1.27,0,0,1-.37-.18.69.69,0,0,1-.26-.33.32.32,0,0,1,.15-.34Z" style="fill-rule:evenodd"></path></g><g style="opacity:0.2"><path d="M385.5,428.79a1,1,0,0,1,.51.1,2.28,2.28,0,0,1,.78.5.78.78,0,0,1-.07,1,.83.83,0,0,1-.62,0,2.1,2.1,0,0,1-.67-.33,1.18,1.18,0,0,1-.47-.59.62.62,0,0,1,.2-.69Z" style="fill-rule:evenodd"></path></g><g style="opacity:0.2"><path d="M400.68,428a1.76,1.76,0,0,0-.43-.52l-.23-.14a.85.85,0,0,0-.42,0,.5.5,0,0,0-.45.3c-.09.27.12.54.32.74a1.46,1.46,0,0,0,.53.39.51.51,0,0,0,.68-.73Z" style="fill-rule:evenodd"></path></g><g style="opacity:0.2"><path d="M391.56,431.52a2.68,2.68,0,0,0-.9-.39l-.39,0a1,1,0,0,0-.55.22.73.73,0,0,0-.37.69c.06.4.5.61.89.74a2.36,2.36,0,0,0,.94.16.85.85,0,0,0,.73-.53A.86.86,0,0,0,391.56,431.52Z" style="fill-rule:evenodd"></path></g><g style="opacity:0.2"><path d="M405.71,423.09a4.46,4.46,0,0,0-1.67.38l-.57.34a1.94,1.94,0,0,0-.55.89,1.33,1.33,0,0,0,.22,1.38,2,2,0,0,0,2,.14,3.82,3.82,0,0,0,1.49-.75,1.44,1.44,0,0,0,.46-1.51A1.56,1.56,0,0,0,405.71,423.09Z" style="fill-rule:evenodd"></path></g><g style="opacity:0.2"><path d="M410.45,426.92a1.92,1.92,0,0,0-.78.17l-.26.16a1,1,0,0,0-.26.41.62.62,0,0,0,.11.64.93.93,0,0,0,.93.06,1.86,1.86,0,0,0,.69-.34.68.68,0,0,0,.21-.7A.7.7,0,0,0,410.45,426.92Z" style="fill-rule:evenodd"></path></g><g style="opacity:0.2"><path d="M405.83,430.42a4.24,4.24,0,0,0-1.12.49l-.41.29a2.16,2.16,0,0,0-.44.59c-.15.29-.18.61,0,.75s.84,0,1.3-.26a4.24,4.24,0,0,0,1-.68c.3-.28.52-.66.44-.92S406.2,430.33,405.83,430.42Z" style="fill-rule:evenodd"></path></g><g style="opacity:0.2"><path d="M381.14,410.53a.71.71,0,0,1-1.24-.7.71.71,0,0,1,1.24.7Z" style="fill-rule:evenodd"></path></g><g style="opacity:0.2"><path d="M381.5,404.09a.47.47,0,0,1-.82-.47.47.47,0,0,1,.64-.17A.46.46,0,0,1,381.5,404.09Z" style="fill-rule:evenodd"></path></g><g style="opacity:0.30000000000000004"><path d="M410.51,381.76l-.05-.13a1.83,1.83,0,0,0-.86-.54,1,1,0,0,0-1,.23.88.88,0,0,0-.07,1.06,1.28,1.28,0,0,0,1,.56,1.1,1.1,0,0,0,.89-.29A.7.7,0,0,0,410.51,381.76Z" style="fill:#fff;fill-rule:evenodd"></path></g><g style="opacity:0.30000000000000004"><path d="M413.72,380.5l0-.07a.93.93,0,0,0-.43-.27.49.49,0,0,0-.48.12.45.45,0,0,0,0,.53.65.65,0,0,0,.49.28.57.57,0,0,0,.45-.15A.35.35,0,0,0,413.72,380.5Z" style="fill:#fff;fill-rule:evenodd"></path></g><g style="opacity:0.30000000000000004"><path d="M406.47,382.72l-.06,0a.89.89,0,0,0-.51.05.48.48,0,0,0-.29.38.44.44,0,0,0,.3.44.65.65,0,0,0,.56-.07.54.54,0,0,0,.25-.39A.36.36,0,0,0,406.47,382.72Z" style="fill:#fff;fill-rule:evenodd"></path></g><g style="opacity:0.30000000000000004"><path d="M404.64,385.62h0a.38.38,0,0,0-.14.14.17.17,0,0,0,.21.25.23.23,0,0,0,.14-.16.19.19,0,0,0,0-.18A.13.13,0,0,0,404.64,385.62Z" style="fill:#fff;fill-rule:evenodd"></path></g><g style="opacity:0.30000000000000004"><path d="M402.92,381.45l-.09-.06a1.36,1.36,0,0,0-.72.08.68.68,0,0,0-.43.55.65.65,0,0,0,.44.63.91.91,0,0,0,.8-.11.74.74,0,0,0,.36-.56A.5.5,0,0,0,402.92,381.45Z" style="fill:#fff;fill-rule:evenodd"></path></g><g style="opacity:0.30000000000000004"><path d="M399.89,384l-.14,0a1.81,1.81,0,0,0-.65.8,1,1,0,0,0,.15,1,1,1,0,0,0,1.09.22,1.29,1.29,0,0,0,.68-.92,1.13,1.13,0,0,0-.21-.94A.76.76,0,0,0,399.89,384Z" style="fill:#fff;fill-rule:evenodd"></path></g><g style="opacity:0.30000000000000004"><path d="M406.21,379.17l-.13,0a1.74,1.74,0,0,0-.82.5.84.84,0,0,0,.71,1.42,1.16,1.16,0,0,0,.87-.58,1,1,0,0,0,.11-.89A.68.68,0,0,0,406.21,379.17Z" style="fill:#fff;fill-rule:evenodd"></path></g><path d="M417,376.48a37.37,37.37,0,0,0-36.72-24.35A79,79,0,0,0,417,376.48c0-.1-.13,0-.16-.05" style="fill:#455a64;fill-rule:evenodd"></path><path d="M386.17,354.05a2,2,0,0,1,.36.14l1,.47c.45.21,1,.47,1.6.78s1.33.67,2.1,1.09c1.55.81,3.35,1.84,5.34,3s4.11,2.58,6.29,4.11,4.18,3.11,6,4.59,3.31,2.9,4.53,4.15c.62.62,1.16,1.2,1.62,1.71s.87,1,1.18,1.34l.71.87a1.47,1.47,0,0,1,.23.32s-.1-.09-.28-.28l-.75-.83c-.32-.37-.73-.81-1.21-1.3s-1-1.07-1.66-1.67c-1.23-1.24-2.79-2.61-4.55-4.1s-3.79-3-6-4.55-4.3-2.91-6.26-4.12-3.76-2.25-5.29-3.08c-.76-.43-1.46-.8-2.07-1.12s-1.14-.61-1.58-.83l-1-.52Z" style="fill:#263238"></path><path d="M417,376.48a5,5,0,0,1-.88-.2c-.56-.15-1.36-.4-2.35-.73a65.11,65.11,0,0,1-7.49-3.13,78.47,78.47,0,0,1-7.09-3.95c-.88-.55-1.58-1-2.06-1.35a4.52,4.52,0,0,1-.72-.54,6.48,6.48,0,0,1,.79.44l2.1,1.27c1.79,1,4.28,2.46,7.12,3.86a78.83,78.83,0,0,0,7.42,3.19c1,.36,1.77.64,2.32.82A5.09,5.09,0,0,1,417,376.48Z" style="fill:#263238"></path><path d="M374.48,401.23a15.8,15.8,0,0,0-13.32-18.05,1.57,1.57,0,0,0-1.13.13,1.63,1.63,0,0,0-.42,1.52,19.1,19.1,0,0,0,14.86,16.86" style="fill:#455a64"></path><path d="M352.33,430.4c4,8.22,9.72,13.76,16.82,14,1.42.05,2.49-.89,3.85-1a8.78,8.78,0,0,1,2.27.86,3.18,3.18,0,0,0,1.18.27c7.34-.4,13.59-5.56,17.8-14.19,5.87-12.08,4.06-25.06-4-29a18.92,18.92,0,0,0-3.31-1.29,13.75,13.75,0,0,0-4-.48,30,30,0,0,0-9.19,2.09l-.4.14c-6.57-2.9-11.83-2.92-16.92-.46C348.26,405.34,346.46,418.32,352.33,430.4Z" style="fill:#FF725E"></path><path d="M429.67,401.55s-9.91-8.34-20.12.79-8.93,18.45-7.66,23c1,3.79,4.83,12.72,16,17.83,0,0,3.05,1.7,3.49,2.37s2.33-1.46,4.14-1.76,10.62-1.06,17-6.95c4.31-4,7.38-8.07,8-15.49s-3.21-15.87-11.61-17.9A28.4,28.4,0,0,0,429.67,401.55Z" style="fill:#FF725E"></path><g style="opacity:0.30000000000000004"><path d="M429.67,401.55s-5.15-3.74-12.87-.7-11.11,11.64-12.15,17.88a20.58,20.58,0,0,0,3.64,16.17c3.38,4.63,13.07,9.87,13.07,9.87-5-3.19-10.17-6.63-12.8-11.92a20.33,20.33,0,0,1-2.15-9.32c.28-5.5.77-8.79,3.29-13.48,1.78-3.31,3.17-6,7.6-8.26a16.21,16.21,0,0,1,12.37-.24"></path></g><path d="M429.67,401.55l-.16-.06-.46-.2-.76-.26c-.31-.08-.66-.19-1.07-.27a17.58,17.58,0,0,0-3-.35,18.11,18.11,0,0,0-4,.34,12.37,12.37,0,0,0-2.24.67,10.3,10.3,0,0,0-1.11.54c-.38.2-.74.43-1.11.65a15.09,15.09,0,0,0-2.15,1.66,14,14,0,0,0-1.87,2.17,26.36,26.36,0,0,0-1.56,2.58c-.5.9-1,1.83-1.44,2.8a23.33,23.33,0,0,0-1.91,6.32c-.17,1.12-.28,2.23-.36,3.33,0,.55-.08,1.1-.11,1.64s0,1.09,0,1.62a20.53,20.53,0,0,0,1.25,6,18.93,18.93,0,0,0,2.64,4.9,25.3,25.3,0,0,0,3.31,3.54,50.55,50.55,0,0,0,5.63,4.2l1.61,1,.42.26.15.09-.14-.1-.42-.27-1.59-1a50.76,50.76,0,0,1-5.6-4.23,24,24,0,0,1-3.29-3.53,18.9,18.9,0,0,1-2.61-4.88,20.32,20.32,0,0,1-1.24-6,14.42,14.42,0,0,1,0-1.61c0-.54.06-1.09.1-1.64.08-1.1.19-2.21.36-3.32a23.11,23.11,0,0,1,1.9-6.29c.44-1,.94-1.89,1.43-2.79a26.92,26.92,0,0,1,1.55-2.57,13.45,13.45,0,0,1,1.86-2.16,14.78,14.78,0,0,1,2.12-1.65c.37-.22.73-.45,1.11-.65a10.16,10.16,0,0,1,1.1-.54,12,12,0,0,1,2.22-.68,18.48,18.48,0,0,1,4-.35,17.79,17.79,0,0,1,3,.33c.41.07.76.18,1.07.26s.56.17.77.25l.46.18Z" style="fill:#263238"></path><path d="M432.06,401.7s.46-3.14.2-3.66-2.1-.75-2.1-.75l-.74,1,.66,1.61-.41,1.67Z" style="fill:#ae7461"></path><g style="opacity:0.30000000000000004"><g style="opacity:0.7000000000000001"><path d="M423.19,402Z" style="fill:#fff"></path></g><g style="opacity:0.7000000000000001"><path d="M414.13,407.09c2.93-3.22,3.93-4.14,9.06-5.08,3.65-.25,7.37-.31,10.15,1.41a2,2,0,0,1,1.07,1.31,1.81,1.81,0,0,1-1,1.55c-2.11,1.37-4.85,1-7.34,1.37a12.79,12.79,0,0,0-8.18,4.72c-.87,1.12-1.79,2.53-3.21,2.55a2.68,2.68,0,0,1-2.41-2.73A9.94,9.94,0,0,1,414.13,407.09Z" style="fill:#fff"></path></g></g><g style="opacity:0.30000000000000004"><path d="M413.76,418.82a1.32,1.32,0,0,1,.61,1.67,1.3,1.3,0,0,1-1.65.62,1.28,1.28,0,0,1-.59-1.66,1.25,1.25,0,0,1,1.67-.52" style="fill:#fff"></path></g><path d="M342.2,420.56s10.84,42.36,56.9,42.36c47.19,0,57.57-41.11,57.57-41.11Z" style="fill:#e0e0e0"></path><g style="opacity:0.6000000000000001"><path d="M427.89,421.49s-3.92,28-20,38.42c0,0,17.16-3.41,27.8-16s13.75-22.15,13.75-22.15Z" style="fill:#fff"></path></g></g><g id="freepik--speech-bubble--inject-10"><path d="M159.54,150.75a55.16,55.16,0,1,0-7.51,9.46L165,161.78Z" style="fill:#fff"></path><path d="M159.54,150.75l.37.71c.24.48.59,1.18,1.06,2.09.92,1.86,2.29,4.6,4.07,8.18l.08.16-.17,0L152,160.34l.11,0a55.49,55.49,0,0,1-23.57,14.18,55,55,0,0,1-17,2.26A57.54,57.54,0,0,1,93,173,55.32,55.32,0,0,1,62.88,97.94c.71-1.39,1.42-2.76,2.13-4.14l2.51-3.89A57.06,57.06,0,0,1,87.7,72.27a58.29,58.29,0,0,1,16.36-5.34l4.19-.52c1.38-.14,2.78-.09,4.16-.14l2.06,0,2,.17c1.36.12,2.72.16,4,.37l4,.71,1,.18.95.27,1.9.55a60.21,60.21,0,0,1,7.3,2.64c1.15.56,2.27,1.16,3.39,1.73.55.3,1.12.57,1.66.88l1.57,1c1,.69,2.09,1.31,3.07,2L148.19,79a27.29,27.29,0,0,1,2.65,2.37c.84.83,1.72,1.6,2.5,2.46l2.23,2.61c.36.44.76.84,1.09,1.3l1,1.37,1.9,2.7,1.6,2.81a47.63,47.63,0,0,1,2.74,5.62,53.44,53.44,0,0,1,4.19,21.43A52.48,52.48,0,0,1,165.53,138a54.47,54.47,0,0,1-4.11,9.62c-.59,1-1,1.83-1.38,2.34s-.5.78-.5.78.14-.27.45-.8.77-1.33,1.34-2.37a56.53,56.53,0,0,0,4-9.63,55.68,55.68,0,0,0-1.82-37.55,48.51,48.51,0,0,0-2.73-5.57l-1.6-2.78-1.89-2.68-1-1.36c-.32-.45-.71-.86-1.07-1.29L153,84.14c-.77-.86-1.65-1.61-2.48-2.44a26.86,26.86,0,0,0-2.63-2.35l-2.83-2.23c-1-.71-2-1.33-3.05-2l-1.55-1c-.54-.31-1.1-.58-1.65-.87-1.12-.56-2.22-1.16-3.36-1.71a60,60,0,0,0-7.25-2.61l-1.88-.54-.95-.27-1-.17-3.93-.71c-1.32-.2-2.67-.23-4-.36l-2-.16-2,.05c-1.37,0-2.75,0-4.12.14l-4.15.52a58.33,58.33,0,0,0-16.21,5.3A56.34,56.34,0,0,0,73.75,83.25a55.6,55.6,0,0,0-5.8,7l-2.49,3.85-2.11,4.1a53.92,53.92,0,0,0-5.18,23.42,54.78,54.78,0,0,0,35,51,56.94,56.94,0,0,0,18.45,3.73,59.72,59.72,0,0,0,8.75-.47,61.39,61.39,0,0,0,8.1-1.72,55.6,55.6,0,0,0,23.49-14l0-.05h.07l12.92,1.6-.1.14-4-8.26-1-2.1C159.64,151,159.54,150.75,159.54,150.75Z" style="fill:#263238"></path><path d="M134.72,115.94l-2.39-1.6A19.65,19.65,0,0,0,127.7,112a49.88,49.88,0,0,0-34.48.93c-2.83,1.15-8.73-.6-11,1.45-2.54,2.29-1.29,8.59-1.49,12a6.89,6.89,0,0,0,.63,3.47c1.62,3.25,5.11,3.26,8.19,3.48,4.52.32,9.88,1.56,13,4.83,4.41,4.57,7.56,6.77,12.81,9s12.75,1.15,17.7-1.55a18.86,18.86,0,0,0,9.76-13,46.71,46.71,0,0,0,0-12.83C142.23,116.45,137.58,117.86,134.72,115.94Z" style="fill:#FF725E"></path><g style="opacity:0.30000000000000004"><path d="M134.72,115.94l-2.39-1.6A19.65,19.65,0,0,0,127.7,112a49.88,49.88,0,0,0-34.48.93c-2.83,1.15-8.73-.6-11,1.45-2.54,2.29-1.29,8.59-1.49,12a6.89,6.89,0,0,0,.63,3.47c1.62,3.25,5.11,3.26,8.19,3.48,4.52.32,9.88,1.56,13,4.83,4.41,4.57,7.56,6.77,12.81,9s12.75,1.15,17.7-1.55a18.86,18.86,0,0,0,9.76-13,46.71,46.71,0,0,0,0-12.83C142.23,116.45,137.58,117.86,134.72,115.94Z"></path></g><path d="M134.72,107.45l-2.39-1.6a19.65,19.65,0,0,0-4.63-2.31,49.88,49.88,0,0,0-34.48.93,26.4,26.4,0,0,0-7.86,4.64A13.29,13.29,0,0,0,80.73,118a6.89,6.89,0,0,0,.63,3.47c1.62,3.26,5.11,3.27,8.19,3.48,4.52.33,9.88,1.56,13,4.83,4.41,4.57,7.56,6.78,12.81,9s12.75,1.14,17.7-1.56a19.15,19.15,0,0,0,9.54-13.28,14.47,14.47,0,0,0-1.19-8.77A18.88,18.88,0,0,0,134.72,107.45Z" style="fill:#FF725E"></path><g style="opacity:0.4"><path d="M134.72,107.45l-2.39-1.6a19.65,19.65,0,0,0-4.63-2.31,49.88,49.88,0,0,0-34.48.93,26.4,26.4,0,0,0-7.86,4.64A13.29,13.29,0,0,0,80.73,118a6.89,6.89,0,0,0,.63,3.47c1.62,3.26,5.11,3.27,8.19,3.48,4.52.33,9.88,1.56,13,4.83,4.41,4.57,7.56,6.78,12.81,9s12.75,1.14,17.7-1.56a19.15,19.15,0,0,0,9.54-13.28,14.47,14.47,0,0,0-1.19-8.77A18.88,18.88,0,0,0,134.72,107.45Z" style="fill:#fff"></path></g><path d="M138.33,115a13,13,0,0,1,1,7.78c-.88,5-3.41,9.28-7.84,11.7s-11.21,3.34-15.87,1.39a30.48,30.48,0,0,1-11.47-8.05c-2.82-2.92-7.62-4-11.67-4.32-2.77-.2-6.68-.14-8.13-3.06a6.11,6.11,0,0,1-.56-3.1c.18-3.09,3-5.31,5.32-7.36a23.65,23.65,0,0,1,7-4.16c9.75-4,20.91-3.67,30.87-.27C127,105.51,135.76,109.1,138.33,115Z" style="fill:#FF725E"></path><ellipse cx="123.25" cy="124.17" rx="6.47" ry="3.76" style="fill:#fff"></ellipse><path d="M112.1,166.68a45.32,45.32,0,1,1,45.32-45.32A45.37,45.37,0,0,1,112.1,166.68Zm0-86.52a41.2,41.2,0,1,0,41.2,41.2A41.26,41.26,0,0,0,112.1,80.16Z" style="fill:#455a64"></path><rect x="69.25" y="119.74" width="86.49" height="4.12" transform="translate(-52.66 107.19) rotate(-42.22)" style="fill:#455a64"></rect></g><g id="freepik--Character--inject-10"><path d="M286.44,336.15s8.39,59,45.21,58.46c26.4-.41,6.07-72.16,6.07-72.16Z" style="fill:#ffbf9d"></path><g style="opacity:0.30000000000000004"><path d="M143.13,407.22c9.19-.33,19.88-.14,27.21-5.71,2.39-1.82,4.76-3.95,7.73-4.44,3.14-.53,6.24.91,9.27,1.9a34.06,34.06,0,0,0,40.11-15.53l-18.06,3.73-24.62-8.78a7.36,7.36,0,0,0-9.28,1.61C164.41,389.34,152.46,396.16,143.13,407.22Z"></path></g><path d="M286.46,106.23c5.07,6.33,4.87,11.22,4.45,13.76-.12.74-.49,1.63-1.25,1.67a1.78,1.78,0,0,1-1-.38l-19.42-12.17" style="fill:#263238"></path><path d="M205.58,173c-2.44-9.83-4.85-19.73-5.57-29.84s.32-20.52,4.51-29.75c.63-1.39,5.86-10.71,7.37-10.45,1.09.18-2.35,9-1.87,10,4.63,9.4,5.29,20.36,3.72,30.72A137.06,137.06,0,0,1,205.58,173" style="fill:#263238"></path><path d="M201.58,227.59l5.72-93.26c1-25.4,16.54-46,41.89-44.34l2.34.29a45.41,45.41,0,0,1,39.78,47c-.95,22-2.28,46.3-3.88,58-3.31,24.16-28,24.91-28,24.91s-2.12,24.71-2.69,31.85L220.33,247l-8.68-1.53Z" style="fill:#ffbf9d"></path><path d="M259.45,220.2s-15.36-1-30.35-13.23c0,0,5.32,19.13,29.73,20Z" style="fill:#ff9a6c"></path><path d="M280.15,160.38a3.47,3.47,0,0,1-3.76,3.07,3.33,3.33,0,0,1-3.18-3.56,3.49,3.49,0,0,1,3.77-3.07A3.32,3.32,0,0,1,280.15,160.38Z" style="fill:#263238"></path><path d="M284.84,147.36c-.48.4-2.86-1.87-6.58-2.32s-6.68,1.07-7,.56c-.18-.22.36-1,1.66-1.7a9.64,9.64,0,0,1,5.69-1,9.3,9.3,0,0,1,5.17,2.41C284.79,146.32,285.08,147.18,284.84,147.36Z" style="fill:#263238"></path><path d="M247.75,157.05a3.49,3.49,0,0,1-3.77,3.08,3.33,3.33,0,0,1-3.17-3.56,3.49,3.49,0,0,1,3.76-3.08A3.34,3.34,0,0,1,247.75,157.05Z" style="fill:#263238"></path><path d="M248.28,143.69c-.48.4-2.86-1.87-6.58-2.32s-6.67,1.07-7,.56c-.17-.22.36-1,1.66-1.7a9.58,9.58,0,0,1,5.69-1,9.2,9.2,0,0,1,5.17,2.41C248.23,142.65,248.52,143.51,248.28,143.69Z" style="fill:#263238"></path><path d="M258.07,173.92c0-.21,2.37-.33,6.17-.34,1,0,1.89-.05,2.13-.68a4.84,4.84,0,0,0-.29-2.9c-.6-2.41-1.24-4.93-1.91-7.58-2.61-10.78-4.38-19.59-3.95-19.69s2.91,8.55,5.53,19.33c.62,2.66,1.22,5.19,1.79,7.61.22,1.12.69,2.42,0,3.79a2.41,2.41,0,0,1-1.73,1.19,6.49,6.49,0,0,1-1.64,0C260.4,174.41,258.06,174.13,258.07,173.92Z" style="fill:#263238"></path><path d="M250.93,132.21c-.62.88-4.1-.56-8.48-1.2s-8.13-.42-8.46-1.45c-.13-.49.72-1.26,2.36-1.83a14.89,14.89,0,0,1,12.9,2C250.64,130.8,251.21,131.78,250.93,132.21Z" style="fill:#263238"></path><path d="M287.09,137.42c-.87.76-3.81-.45-7.45-.89s-6.8-.16-7.41-1.13c-.26-.46.31-1.26,1.75-1.91a11.82,11.82,0,0,1,6.21-.72,11.55,11.55,0,0,1,5.76,2.35C287.15,136.13,287.47,137.05,287.09,137.42Z" style="fill:#263238"></path><path d="M207.05,152.49c-.39-.23-16-7-17.55,9.62S205,176.83,205,176.36,207.05,152.49,207.05,152.49Z" style="fill:#ffbf9d"></path><path d="M200.54,169.6c-.06-.06-.31.17-.81.35a2.9,2.9,0,0,1-2.17-.15c-1.7-.81-2.92-3.73-2.72-6.73A9.41,9.41,0,0,1,196,159a3.36,3.36,0,0,1,2.38-2,1.47,1.47,0,0,1,1.63,1c.18.49.05.81.13.84s.39-.24.32-.94a1.85,1.85,0,0,0-.56-1.1,2.2,2.2,0,0,0-1.56-.57,4.07,4.07,0,0,0-3.26,2.3,9.85,9.85,0,0,0-1.43,4.53c-.2,3.36,1.22,6.65,3.56,7.56a3.09,3.09,0,0,0,2.68-.19C200.48,170,200.6,169.63,200.54,169.6Z" style="fill:#ff9a6c"></path><path d="M282.85,108.89c2.81-1.26-4.53-10.65-10.89-14.2-9.62-5.36-24.64-9.42-34.07-7.57-11.35,2.22-21,7-27.43,16.6s-9.48,21.22-10.12,32.77c-.19,3.52-.13,7.22,1.5,10.35,2,3.87,5.18,6,5.66,11.6.15,1.86.15,3.76,1.3,5.22,2.77,3.49,6.75.76,8.71-2.15,4.2-6.2,5.25-13.94,6.19-21.37.67-5.28,1.34-10.68.27-15.9-.59-2.83-1.68-5.56-2.1-8.43s-.07-6,1.87-8.2a9.83,9.83,0,0,1,1.46-1.25,17.4,17.4,0,0,1,17.47-1.84c9.08,4.09,24.66,10.36,29.1,7.53,6.38-4.07,8.07-6.93,8.07-6.93Z" style="fill:#263238"></path><path d="M195.56,150.83c-.29-.31-.75-.41-1-.72-18.07-20.32-1-37-.26-42.52,1-7.65-9,1.3-9.32-8.91-.45-13.52,14.31-18.06,32.37-22.35,7.57-1.8,25.69-1,41.26,3.61,13.88,4.14,22.47,15,27.17,23.13,0,0,3.17,1.88,3.83,3.42,2.1,4.81.82,6.6.82,6.6s-29.88-18.83-57.83.31S207.81,151.32,200.89,151Z" style="fill:#455a64"></path><path d="M222.14,88.2a7.77,7.77,0,0,1-1.43.47c-.46.13-1,.3-1.67.53s-1.39.45-2.18.79a45.68,45.68,0,0,0-5.47,2.52,50.94,50.94,0,0,0-6.19,4,51.64,51.64,0,0,0-5.47,4.94,46.7,46.7,0,0,0-3.84,4.64c-.53.68-.94,1.34-1.32,1.91s-.7,1.06-.94,1.48a9.94,9.94,0,0,1-.82,1.26,8,8,0,0,1,.65-1.35,15.84,15.84,0,0,1,.88-1.53c.36-.59.75-1.27,1.27-2a42.28,42.28,0,0,1,3.8-4.74,43.71,43.71,0,0,1,11.77-9,42.89,42.89,0,0,1,5.56-2.46c.81-.31,1.57-.51,2.22-.72a17.09,17.09,0,0,1,1.71-.45A10.4,10.4,0,0,1,222.14,88.2Z" style="fill:#263238"></path><path d="M286.56,103.59a1.29,1.29,0,0,1-.28-.13l-.81-.41c-.7-.38-1.76-.9-3.12-1.57s-3.06-1.4-5.07-2.15a56.09,56.09,0,0,0-7-2.17,57,57,0,0,0-18.84-1.36,58.86,58.86,0,0,0-22.12,6.56,57,57,0,0,0-9.94,6.73,59.8,59.8,0,0,0-7.75,8.07,82.62,82.62,0,0,0-9.84,16.19c-2.29,4.91-3.83,9-4.87,11.86-.51,1.4-.9,2.51-1.18,3.29-.13.35-.24.63-.31.85a1.14,1.14,0,0,1-.13.28s0-.1.08-.3.15-.5.26-.87c.24-.76.6-1.88,1.1-3.31,1-2.87,2.48-7,4.74-11.94a80.85,80.85,0,0,1,9.8-16.33,59.49,59.49,0,0,1,7.8-8.15,56.21,56.21,0,0,1,10-6.79,58.4,58.4,0,0,1,22.31-6.58,56.7,56.7,0,0,1,19,1.46,55.69,55.69,0,0,1,7,2.25c2,.78,3.7,1.58,5.06,2.24s2.4,1.25,3.08,1.65l.79.46A2.67,2.67,0,0,1,286.56,103.59Z" style="fill:#263238"></path><path d="M206.94,143.5a9.09,9.09,0,0,1-7.9-3.88,24.3,24.3,0,0,0,3.66,2.52A24.45,24.45,0,0,0,206.94,143.5Z" style="fill:#263238"></path><path d="M216.92,129.5a4.6,4.6,0,0,1-1.68-.52,13.06,13.06,0,0,1-3.52-2.37,12.9,12.9,0,0,1-2.57-3.38,4.49,4.49,0,0,1-.62-1.64,23.27,23.27,0,0,0,3.52,4.67A22.67,22.67,0,0,0,216.92,129.5Z" style="fill:#263238"></path><path d="M233.49,112.6a42.63,42.63,0,0,0-2.71-4.85,41,41,0,0,0-3.71-4.14,14.4,14.4,0,0,1,6.42,9Z" style="fill:#263238"></path><path d="M249.18,106.31a46.43,46.43,0,0,0-1.12-5,46.83,46.83,0,0,0-2.1-4.62,13.23,13.23,0,0,1,3.22,9.57Z" style="fill:#263238"></path><path d="M272,106.73a13.79,13.79,0,0,0,.23-5,13.93,13.93,0,0,0-2-4.6s.51.33,1.06,1.1a8.75,8.75,0,0,1,1.32,7.11A3.17,3.17,0,0,1,272,106.73Z" style="fill:#263238"></path><path d="M285.4,111.16a31.82,31.82,0,0,0,.75-3.87,30.19,30.19,0,0,0-.23-3.94,6.68,6.68,0,0,1,.71,4A6.81,6.81,0,0,1,285.4,111.16Z" style="fill:#263238"></path><path d="M297,95.69c-3.24-4.94-10.06-6.85-15.72-5.16S271.21,97,269,102.48a8.69,8.69,0,0,0-11.07,2.28l-7.23.8a29.42,29.42,0,0,0,2.81,8.63c1.52,2.63,4.08,4.84,7.1,5.17s6.34-1.74,6.69-4.76c1.37,5.17,6.75,8.3,12,9.35,4.09.82,8.66.62,12-1.85s4.87-7.69,2.32-11C298.86,108.31,300.27,100.64,297,95.69Z" style="fill:#263238"></path><path d="M260.06,182.25l-.58-.52-9.59-1.93a2.89,2.89,0,0,0-1.57,0,2.48,2.48,0,0,0-1.26,1.38,6.93,6.93,0,1,0,13,1.1Z" style="fill:#ff9a6c"></path><path d="M258.13,189.35s-.07.09-.23.24a6.13,6.13,0,0,1-.77.57,7.32,7.32,0,0,1-3.38,1,7.23,7.23,0,0,1-5-1.6,7.67,7.67,0,0,1-2.65-5.78,6.41,6.41,0,0,1,.84-3.28,2,2,0,0,1,1.39-1,4.08,4.08,0,0,1,1.58.12l5,1.22,3.39.87a5.87,5.87,0,0,1,1.22.39,7.13,7.13,0,0,1-1.27-.19l-3.42-.71-5.05-1.11a3.69,3.69,0,0,0-1.39-.11,1.6,1.6,0,0,0-1.05.78,6,6,0,0,0-.75,3,7.3,7.3,0,0,0,2.44,5.42,6.94,6.94,0,0,0,4.64,1.59A7.57,7.57,0,0,0,257,190C257.75,189.6,258.1,189.31,258.13,189.35Z" style="fill:#263238"></path><path d="M334,296c-7.35-23.31-7.73-35.43-13.43-43.68s-61.73-25.39-61.73-25.39-1.21,12.7-23.5,13.71S202,221.26,202,221.26s-24,6.21-40.11,10.94c-15.91,4.66-25.33,9-35.32,16.49-11.65,8.76-28.25,80.58-28.25,80.58l44.27,16.26,3.35,45.57-1.37,71.77,171.53.22c-.07-11.54-10.91-124.7-10.91-124.7l39-9.45S340.5,316.66,334,296Z" style="fill:#FF725E"></path><path d="M301.28,274a2.88,2.88,0,0,1,.12.65c.06.49.15,1.11.25,1.88.21,1.64.46,4,.73,6.94.56,5.86,1.11,14,1.45,23s.44,17.11.46,23c0,2.89,0,5.26,0,7,0,.78,0,1.41,0,1.89a4.12,4.12,0,0,1,0,.66,2.78,2.78,0,0,1-.06-.66q0-.72-.06-1.89c0-1.71-.09-4.07-.15-7-.12-5.88-.28-14-.62-23s-.84-17.09-1.29-22.95c-.24-2.89-.43-5.24-.57-6.95q-.1-1.16-.15-1.89A3,3,0,0,1,301.28,274Z" style="fill:#263238"></path><path d="M139,284.82a3.79,3.79,0,0,1,.09.75c0,.54.1,1.26.16,2.15.13,1.93.3,4.62.51,7.92.45,6.73,1.07,15.94,1.74,26.11s1.26,19.45,1.59,26.14c.17,3.35.29,6.05.35,7.93,0,.89,0,1.61.06,2.15a3.4,3.4,0,0,1,0,.76,5.09,5.09,0,0,1-.09-.75c0-.54-.09-1.26-.16-2.15-.12-1.93-.29-4.62-.51-7.92-.44-6.73-1.06-15.94-1.74-26.12s-1.25-19.44-1.58-26.13c-.17-3.35-.29-6.06-.35-7.93,0-.9,0-1.61-.06-2.16A5.38,5.38,0,0,1,139,284.82Z" style="fill:#263238"></path><path d="M275.26,297a9.25,9.25,0,0,0-3.23-6.68,11.92,11.92,0,0,0-7.65-2.95,9.56,9.56,0,0,0,9.74,10.16c0-.6-2-2.24-2.93-4.17A13.08,13.08,0,0,1,275.26,297Z" style="fill:#ebebeb"></path><path d="M281.33,297.54s5.19-5.87,4.35-12.21a14.63,14.63,0,0,0-5.39-10c-3.08,2.77-5.52,6.29-5.56,10.43a15.19,15.19,0,0,0,4.73,11.11c.64-.69.23-4.69,1.31-7.9A20.83,20.83,0,0,1,281.33,297.54Z" style="fill:#ebebeb"></path><path d="M269.91,299.74a.22.22,0,0,0-.28.15,18.9,18.9,0,0,0-.56,2.62c-.16,1-.22,1.4-.35,2.64s-.26,2.3-.31,2.55c0,0-.08-.25-.15-.49s-.11-.52-.14-.7c-.44-2.52-.68-3.88-.72-4.06s-.06-.49-.1-.87a14.39,14.39,0,0,0-.34-1.92.22.22,0,0,0-.26-.15.23.23,0,0,0-.16.27c.13.54.21,1.08.32,1.86l.12.87c0,.23.27,1.6.72,4.09,0,.29.13.69.25,1.22l.16.55,0,.18s0,.05,0,.06,0,.05,0,.06v0s.08.08.14.08a.24.24,0,0,0,.23-.07.39.39,0,0,0,.08-.1.13.13,0,0,1,0-.05,1.72,1.72,0,0,0,.09-.36c0-.11,0-.26.07-.43s.06-.57.16-1.31c0-.23.07-.64.15-1.27s.11-1.07.15-1.37l.18-1.22a14.6,14.6,0,0,1,.57-2.58C270.07,299.89,270,299.76,269.91,299.74Z" style="fill:#ebebeb"></path><path d="M268.41,308.9h-.08a.39.39,0,0,1-.21-.11l0,0v-.06l0-.05,0-.05,0-.18-.2-.71c-.1-.45-.18-.81-.22-1.07l-.1-.56c-.38-2.14-.59-3.32-.62-3.53l-.12-.87a14.7,14.7,0,0,0-.32-1.85.37.37,0,0,1,.26-.42.35.35,0,0,1,.41.22,15.86,15.86,0,0,1,.34,2l0,.22c0,.27.05.48.08.64l.09.54c.12.64.32,1.81.62,3.52,0,.16.07.37.13.62.06-.5.14-1.22.22-2,.14-1.2.19-1.59.34-2.54v-.11a20.47,20.47,0,0,1,.57-2.64.36.36,0,0,1,.43-.24.35.35,0,0,1,.24.41,15.13,15.13,0,0,0-.56,2.58l-.19,1.23c0,.29-.08.73-.14,1.33l-.08.63c0,.3-.06.53-.08.67-.06.52-.1.89-.13,1.11s0,.17,0,.2l0,.19c0,.1,0,.19-.05.26a.36.36,0,0,0,0,.1,1.36,1.36,0,0,1-.08.28l0,0a0,0,0,0,0,0,0,.49.49,0,0,1-.1.13A.36.36,0,0,1,268.41,308.9Zm-.07-.27h0c.08,0,.11,0,.13,0l.05-.06,0-.05h0v0a.91.91,0,0,0,.05-.21.5.5,0,0,0,0-.12.85.85,0,0,0,.05-.24l0-.18s0-.1,0-.2.07-.59.13-1.11c0-.15.05-.37.08-.67l.08-.63c.06-.6.1-1,.15-1.34l.18-1.22a15,15,0,0,1,.57-2.6h0s0-.1-.06-.11h0a.09.09,0,0,0-.12.07,19.51,19.51,0,0,0-.56,2.6v.11c-.15.94-.21,1.34-.34,2.52s-.26,2.31-.31,2.56v.09h-.09c-.11,0-.12,0-.21-.31l-.08-.26c-.07-.31-.11-.54-.14-.72l-.62-3.51c-.06-.31-.09-.49-.1-.55s0-.38-.08-.65l0-.22a14.47,14.47,0,0,0-.33-1.91s-.06-.08-.1-.06-.09.08-.08.14a16.21,16.21,0,0,1,.32,1.86l.12.86c0,.21.24,1.39.62,3.52l.1.57c0,.26.12.61.22,1.05l0,.16.2.72v0a.25.25,0,0,1,0,.07Z" style="fill:#ebebeb"></path><path d="M273.78,299.31l-1.2,0-.74,0a1.07,1.07,0,0,0-.48.08.9.9,0,0,0-.29.68,10.54,10.54,0,0,0,0,2,6.89,6.89,0,0,1,.05,1.34c0,.35-.05.76-.06,1.27a32.34,32.34,0,0,0,0,3.26,4.19,4.19,0,0,0,.09.67c.05.2.11.38.28.44a2.55,2.55,0,0,0,1.11.14c.2,0,.84-.08,1-.08a.21.21,0,0,0,0-.42h-.51a5.09,5.09,0,0,1-1.22,0,.25.25,0,0,1-.22-.29c0,.05,0,.16,0,.14a.29.29,0,0,1,0-.08,4.21,4.21,0,0,1-.08-.59,32.57,32.57,0,0,1,0-3.52c0-.31.12-.31.32-.31h.54a.22.22,0,0,0,.21-.23.22.22,0,0,0-.24-.2h-.48c-.21,0-.32,0-.3-.33a7.09,7.09,0,0,0-.05-1.28,10.61,10.61,0,0,1,0-1.91c0-.05,0-.08,0-.11a1.53,1.53,0,0,1,.05-.21v0h1c.5,0,.87,0,1.07,0s.24,0,.33-.08a.16.16,0,0,0,.06-.15A.21.21,0,0,0,273.78,299.31Z" style="fill:#ebebeb"></path><path d="M272.38,309.26a2.51,2.51,0,0,1-1-.15c-.23-.08-.3-.32-.35-.53a3.41,3.41,0,0,1-.1-.69c-.06-1,0-2.5,0-3.28,0-.32,0-.61,0-.86s0-.28,0-.41a4.93,4.93,0,0,0,0-1l0-.36a11.73,11.73,0,0,1-.05-2,1.08,1.08,0,0,1,.35-.78,1.19,1.19,0,0,1,.55-.09h.74l1,0h.2a.37.37,0,0,1,.2.07.35.35,0,0,1,.14.24.31.31,0,0,1-.11.27.38.38,0,0,1-.34.1h-1.14l-.7,0h-.19a.41.41,0,0,0,0,.14.43.43,0,0,0,0,0,.08.08,0,0,0,0,0,10.73,10.73,0,0,0,.05,1.9c0,.2,0,.34,0,.46a3.61,3.61,0,0,1,0,.83c0,.14,0,.18,0,.19s.12,0,.15,0h.46a.32.32,0,0,1,.25.06.4.4,0,0,1,.14.24.36.36,0,0,1-.34.37,4.28,4.28,0,0,1-.54,0c-.18,0-.18,0-.19.18a30,30,0,0,0,0,3.51,4.12,4.12,0,0,0,.06.55h.06c0,.12.05.15.13.16a3.91,3.91,0,0,0,.9,0l.28,0c.24,0,.41,0,.52,0a.34.34,0,1,1,0,.68c-.15,0-.55,0-.82.06l-.21,0Zm-.54-9.87a1,1,0,0,0-.42.06c-.13.08-.19.3-.23.59a11.2,11.2,0,0,0,.05,2l0,.35a5.47,5.47,0,0,1,0,1c0,.12,0,.26,0,.4s0,.54,0,.86c0,.78-.08,2.23,0,3.25a3.89,3.89,0,0,0,.09.65c0,.19.1.32.2.36a2.76,2.76,0,0,0,1.07.13l.2,0c.28,0,.68-.06.84-.06a.09.09,0,0,0,0-.18h0c-.11,0-.27,0-.5,0l-.28,0a4,4,0,0,1-1,0,.39.39,0,0,1-.24-.14h0l-.1-.09v-.06a.13.13,0,0,1,0-.08,3.29,3.29,0,0,1-.07-.58,30.49,30.49,0,0,1,0-3.54c0-.39.2-.42.44-.42a4.19,4.19,0,0,0,.53,0,.1.1,0,0,0,.1-.1.21.21,0,0,0,0-.06l-.07,0a3.55,3.55,0,0,1-.49,0,.42.42,0,0,1-.33-.1.48.48,0,0,1-.1-.37,3.38,3.38,0,0,0,0-.8c0-.12,0-.26,0-.47a10.05,10.05,0,0,1-.05-1.92s0-.06,0-.08a1.41,1.41,0,0,1,.05-.24.15.15,0,0,1,.06-.11l0,0h.08a.86.86,0,0,1,.25,0l.71,0h1.19c.06,0,.08,0,.11,0a.09.09,0,0,0,0-.07s0,0,0-.06l-.06,0h-.2l-1,0Z" style="fill:#ebebeb"></path><path d="M277.17,305.32h-.52a.21.21,0,0,0-.21.22.21.21,0,0,0,.21.21h.24c.19,0,.43,0,.51.11a3.66,3.66,0,0,1-.14,2c-.29.78-.64,1-1.17.52a3.18,3.18,0,0,1-.63-1.58,16.5,16.5,0,0,1-.12-5.33c.3-1.57,1-2,1.57-1.34a1,1,0,0,1,.23,1,.22.22,0,1,0,.4.19,1.45,1.45,0,0,0-.31-1.51,1.09,1.09,0,0,0-1.51-.17,2.71,2.71,0,0,0-.81,1.74,16.65,16.65,0,0,0,.12,5.49c.38,1.81,1.19,2.51,1.94,2.1a2.93,2.93,0,0,0,.95-2.3C278,305.68,277.73,305.38,277.17,305.32Z" style="fill:#ebebeb"></path><path d="M276.55,309.2a.92.92,0,0,1-.39-.09c-.56-.25-1-1.05-1.25-2.23a16.76,16.76,0,0,1-.12-5.54,2.78,2.78,0,0,1,.86-1.81,1.21,1.21,0,0,1,1.67.18,1.53,1.53,0,0,1,.33,1.64.31.31,0,0,1-.27.21.34.34,0,0,1-.32-.14.32.32,0,0,1,0-.34.85.85,0,0,0-.2-.89.55.55,0,0,0-.54-.23c-.35.09-.65.66-.82,1.51a16.44,16.44,0,0,0,.12,5.27,2.94,2.94,0,0,0,.59,1.52c.19.18.35.25.48.22s.34-.27.49-.69a3.66,3.66,0,0,0,.15-1.86h0s-.05-.08-.39,0h-.25a.34.34,0,0,1,0-.68l.22,0h.31c.67.08.91.48.86,1.48s-.33,2-1,2.4A1,1,0,0,1,276.55,309.2Zm-.13-9.67a1.22,1.22,0,0,0-.63.2,2.64,2.64,0,0,0-.76,1.66,16.45,16.45,0,0,0,.13,5.44,2.85,2.85,0,0,0,1.11,2.06.69.69,0,0,0,.64,0c.55-.29.84-1.31.88-2.2s-.18-1.16-.63-1.21h-.28l-.22,0c-.06,0-.1,0-.1.09a.09.09,0,0,0,.09.09h.24c.2,0,.5,0,.61.16a3.7,3.7,0,0,1-.12,2.07c-.19.53-.41.8-.68.86a.77.77,0,0,1-.7-.29,3.24,3.24,0,0,1-.66-1.65,16.49,16.49,0,0,1-.12-5.37c.18-1,.54-1.58,1-1.7a.76.76,0,0,1,.79.3,1.1,1.1,0,0,1,.26,1.15c0,.05,0,.08,0,.1s.06.06.09,0a.08.08,0,0,0,.07-.05,1.31,1.31,0,0,0-.28-1.38A1,1,0,0,0,276.42,299.53Z" style="fill:#ebebeb"></path><path d="M281.36,301.38a4.35,4.35,0,0,0-.2-1.06c-.18-.63-.56-1-1.19-.71-.3.17-.5.75-.67,1.56a38.91,38.91,0,0,0-.61,5.67c-.07,1.06-.13,1.7-.16,1.94a.21.21,0,1,0,.42.06c.05-.26.11-.91.19-2,.09-1.25.16-2.1.19-2.56a.28.28,0,0,1,.33-.27c.42,0,.86,0,1.31.07a.28.28,0,0,1,.3.29c.14,1.5.2,3,.2,4.44a.21.21,0,0,0,.21.21.21.21,0,0,0,.22-.21,51.06,51.06,0,0,0-.51-7.14S281.38,301.58,281.36,301.38Zm-.51,2.28-1.14-.07c-.19,0-.3,0-.28-.32a12,12,0,0,1,.3-2,5.33,5.33,0,0,1,.24-.9.8.8,0,0,1,.11-.21.3.3,0,0,1,.28-.2c.16,0,.29.14.39.5a5.56,5.56,0,0,1,.17,1c.12.89.21,1.41.24,1.94C281.18,303.69,281.07,303.67,280.85,303.66Z" style="fill:#ebebeb"></path><path d="M281.68,309.18a.34.34,0,0,1-.34-.34c0-1.51-.06-3-.19-4.43a.16.16,0,0,0-.18-.17c-.43-.05-.85-.06-1.26-.08h-.06a.24.24,0,0,0-.14,0,.18.18,0,0,0-.05.13c0,.23,0,.57-.08,1s-.07.94-.12,1.55c-.07,1.05-.14,1.71-.18,2a.33.33,0,0,1-.14.23.36.36,0,0,1-.25.06.34.34,0,0,1-.29-.39c0-.25.1-.91.17-1.93l.07-.86a31.61,31.61,0,0,1,.54-4.83c.2-1,.42-1.46.73-1.64a.91.91,0,0,1,.76-.07,1.2,1.2,0,0,1,.61.85,4.69,4.69,0,0,1,.21,1.09h0c0,.13,0,.22,0,.27a.28.28,0,0,1,0,.06,52.38,52.38,0,0,1,.5,7.14A.33.33,0,0,1,281.68,309.18ZM281,304a.41.41,0,0,1,.42.4c.13,1.43.19,2.93.19,4.45a.09.09,0,0,0,.18,0,52.31,52.31,0,0,0-.5-7.12v-.05a2.6,2.6,0,0,1,0-.28,5.42,5.42,0,0,0-.19-1,1.1,1.1,0,0,0-.47-.7.69.69,0,0,0-.55.06c-.3.17-.49.92-.6,1.47a29.78,29.78,0,0,0-.54,4.8l-.07.86c-.08,1-.14,1.69-.17,1.94a.11.11,0,0,0,0,.08.06.06,0,0,0,.06,0,.06.06,0,0,0,.07,0,.09.09,0,0,0,0-.05c0-.19.09-.67.18-2,.05-.61.09-1.13.12-1.55s.06-.77.08-1a.45.45,0,0,1,.14-.3.42.42,0,0,1,.32-.09h.05c.41,0,.83,0,1.26.08Zm0-.2h-.13c-.37,0-.72,0-1.13-.06h0a.42.42,0,0,1-.32-.1.43.43,0,0,1-.09-.35,11.11,11.11,0,0,1,.28-1.88l0-.15a4.81,4.81,0,0,1,.25-.93.9.9,0,0,1,.12-.24.43.43,0,0,1,.36-.25h0c.28,0,.41.32.49.6a6,6,0,0,1,.17,1c0,.22.06.41.09.6.08.54.14.94.16,1.34a.46.46,0,0,1-.09.37A.31.31,0,0,1,281,303.79Zm-.12-.26h0a.42.42,0,0,0,.16,0h0s0,0,0-.17c0-.4-.08-.79-.16-1.33,0-.18-.05-.38-.08-.6a6.4,6.4,0,0,0-.17-.94c-.08-.28-.16-.42-.26-.42h0a.2.2,0,0,0-.18.13l0,0a.54.54,0,0,0-.08.17,5.46,5.46,0,0,0-.24.89l0,.15a12.15,12.15,0,0,0-.27,1.84.31.31,0,0,0,0,.17s.12,0,.15,0C280.14,303.49,280.48,303.5,280.85,303.53Z" style="fill:#ebebeb"></path><path d="M286,299.76a.22.22,0,1,0-.43-.05,27.47,27.47,0,0,0-.14,4.63c0,1,.05,1.68.05,2.08v.67c0,.24-.26-.35-.34-.63v0c-.43-1.28-1.25-4.91-1.3-5.09a6.6,6.6,0,0,0-.21-.66l-.25-.82a.43.43,0,0,0-.24-.31.36.36,0,0,0-.21,0c-.13.07-.14.21-.08,1.19,0,.23,0,.56-.05,1s0,.81,0,1,0,1,0,1.83-.06,1.61-.06,2.3a14,14,0,0,0,.1,1.83.22.22,0,0,0,.25.18.2.2,0,0,0,.18-.24,25.46,25.46,0,0,1-.05-3.94c0-.91.05-1.57.05-2,0-.17,0-.51.05-1a6.14,6.14,0,0,1,.06-.68,2,2,0,0,1,.1.35c.07.23.26,1.08.61,2.56.25,1.05.48,1.91.69,2.56l.4,1.21.16.56c0,.08.07.13.08.17l0,.08,0,0s0,0,0,0a.24.24,0,0,0,.13.05.22.22,0,0,0,.23-.11.93.93,0,0,0,.05-.1,1.31,1.31,0,0,0,0-.25,4.78,4.78,0,0,0,0-.64v-1.2c0-.42,0-1.12,0-2.09A25.76,25.76,0,0,1,286,299.76Z" style="fill:#ebebeb"></path><path d="M283,309.09a.34.34,0,0,1-.34-.3,13.24,13.24,0,0,1-.11-1.84q0-1.18.06-2.31c0-.86.05-1.46.05-1.82,0-.18,0-.44,0-.77v-.28c0-.44,0-.78,0-1-.06-1-.05-1.18.14-1.3a.5.5,0,0,1,.3,0,.52.52,0,0,1,.34.39l.25.83a5.17,5.17,0,0,1,.21.66s0,.12.07.26c.21.92.86,3.73,1.23,4.82v0c0,.08.06.18.1.28v-.27c0-.4,0-1.07,0-2.07a26.52,26.52,0,0,1,.14-4.66.33.33,0,0,1,.38-.29.3.3,0,0,1,.22.12.36.36,0,0,1,.07.26h0a26.42,26.42,0,0,0-.12,4.54v.91c0,.52,0,.92,0,1.19v1.2c0,.23,0,.44,0,.65a2.71,2.71,0,0,1-.05.27c0,.06,0,.09-.05.12s-.27.2-.36.18a.29.29,0,0,1-.19-.06l0,0,0-.05a.12.12,0,0,1,0-.08l0-.06,0-.07a.31.31,0,0,1-.05-.1l-.17-.57-.4-1.21c-.21-.64-.43-1.48-.69-2.57l-.26-1.12-.27-1.12c0,.52,0,.85,0,1,0,.41,0,1.09-.05,2v.36a23.31,23.31,0,0,0,.06,3.56.35.35,0,0,1-.3.38Zm.07-9.42H283s-.06.26,0,1.07c0,.24,0,.59,0,1v.27c0,.32,0,.58,0,.76,0,.36,0,1-.05,1.83s-.06,1.52-.06,2.3a12.88,12.88,0,0,0,.11,1.81.1.1,0,0,0,.1.08.1.1,0,0,0,.08-.1,24,24,0,0,1-.06-3.6v-.36c0-.88.05-1.56.05-2,0-.17,0-.5,0-1,0-.8,0-.8.18-.81h.1l0,.11a2.89,2.89,0,0,1,.11.35l.34,1.44.27,1.12c.25,1.09.47,1.92.68,2.56l.4,1.2.16.57,0,.07a.36.36,0,0,1,0,.09l.05.1a.1.1,0,0,0,.07,0s.06,0,.11-.07l0-.06a1.71,1.71,0,0,0,0-.23,6.13,6.13,0,0,0,0-.62v-1.2c0-.27,0-.67,0-1.18v-.91a26.9,26.9,0,0,1,.12-4.58h0a.08.08,0,0,0,0-.07l-.06,0a.09.09,0,0,0-.11.07,27.13,27.13,0,0,0-.13,4.62c0,1,0,1.68,0,2.08v.67c0,.15-.09.17-.12.18h0c-.22,0-.42-.69-.44-.77h0c-.38-1.13-1-3.94-1.25-4.86,0-.14-.05-.24-.06-.26a5.67,5.67,0,0,0-.21-.64l-.25-.84c-.05-.16-.12-.2-.17-.22Z" style="fill:#ebebeb"></path><path d="M340.09,216.47l11-.22c1.65-3.39,4.23-6.17,6.41-9.19s4.1-6.52,4.11-10.29a6.5,6.5,0,0,0-.67-3.13,3.37,3.37,0,0,0-2.46-1.81,4.48,4.48,0,0,0-3.26,1.37c-2.61,2.19-4.41,5.22-6.17,8.18Z" style="fill:#ff9a6c"></path><path d="M385.57,192.24s1.78,3.48-13.21,8-30.6,9.15-33.2,10.15a22.55,22.55,0,0,0-8.69,5.84,22.85,22.85,0,0,1-19.13,8.08c-10.72-.49-14.19-5.19-14.26-6.43s5.14-2.7,12-2.66,15,.65,16.26.57a6.72,6.72,0,0,0,3.8-1.65s4.71-4.77,8.21-5.86,24-8.47,24-8.47,21.08-7.62,22.11-7.85S385.33,191.23,385.57,192.24Z" style="fill:#e0e0e0"></path><path d="M323.56,218.77a28.67,28.67,0,0,0-11.81-2.37,39.07,39.07,0,0,0-11.92,2.06,21.28,21.28,0,0,0,12.05,2.78C319.29,220.89,323.56,218.77,323.56,218.77Z" style="fill:#FF725E"></path><path d="M299.09,218.44c0-.09,1.47.76,4,1.48a34,34,0,0,0,10.21,1,27.52,27.52,0,0,0,10-2c2.43-1,3.78-2,3.83-1.9a3.88,3.88,0,0,1-.92.71,19,19,0,0,1-2.77,1.53,25.72,25.72,0,0,1-10.16,2.19A31,31,0,0,1,303,220.27a18.37,18.37,0,0,1-2.92-1.21A4.37,4.37,0,0,1,299.09,218.44Z" style="fill:#263238"></path><path d="M348.61,252.05l.75,14.94L321,262.72s.23-11.54.79-16.34c.41-3.52,10.57-14.92,10.57-14.92s-3.49-5.17-3.16-7.8,7.06-7.87,7.06-7.87c.15-4.59,7.84-5.71,7.84-5.71.12-3.79,5.08-4,7.11-2.53s8.1,6.2,8.1,6.2l-.81-5.82-5.93-3.14L346.71,206a2.61,2.61,0,0,1-.69-.1,2.9,2.9,0,0,1-1.94-3.54c.24-1.29,7.67-4.44,9-5.07s11.22,1.69,13.7,3.76,4.16,23.19,4.16,23.19C369.46,229.23,348.61,252.05,348.61,252.05Z" style="fill:#ffbf9d"></path><path d="M334.33,226.84c1.13,1.38,2.37,2.14,2.3,2.27a6.61,6.61,0,0,1-4.1-5C332.67,224.11,333.21,225.47,334.33,226.84Z" style="fill:#ff9a6c"></path><path d="M332.3,226.44c.75,0,1.26-.4,1.38-.32s-.4.78-1.35.84-1.53-.57-1.42-.66S331.56,226.48,332.3,226.44Z" style="fill:#ff9a6c"></path><path d="M338.66,216.81a13.68,13.68,0,0,1,4.43,3.69,13.21,13.21,0,0,1,2.13,3.92l-.12-.13a20,20,0,0,1,3.35,1.57,22,22,0,0,1-3.52-1.17h-.08v-.1a14.43,14.43,0,0,0-2.13-3.74,14.77,14.77,0,0,0-4.2-3.68c-1.25-.73-2.06-1-2.07-1.11A6.43,6.43,0,0,1,338.66,216.81Z" style="fill:#ff9a6c"></path><path d="M355.53,221.42a5.9,5.9,0,0,0-1.67-.62,7,7,0,0,1-2.57-1.06,19.52,19.52,0,0,1-2.37-2.44c-1.58-1.78-3-3.42-4-4.62a12,12,0,0,1-1.56-2,12.83,12.83,0,0,1,1.83,1.78c1.11,1.14,2.52,2.73,4.11,4.52a22.67,22.67,0,0,0,2.29,2.41,7.46,7.46,0,0,0,2.38,1.09,4.89,4.89,0,0,1,1.69.81,1.51,1.51,0,0,1,.45.52S355.9,221.68,355.53,221.42Z" style="fill:#ff9a6c"></path><path d="M362.11,217.19a25.92,25.92,0,0,0,3.58,2.6,9,9,0,0,1-6.31-6.11A26.6,26.6,0,0,0,362.11,217.19Z" style="fill:#ff9a6c"></path><path d="M332.93,231.22a3.31,3.31,0,0,1,2.22.4l-.38.22v-.13a5.35,5.35,0,0,1,.51-2.33c.31-.55.64-.76.69-.7s-.18.34-.36.87a7.29,7.29,0,0,0-.33,2.18v.56l-.36-.21a3.59,3.59,0,0,0-2-.49c-.52,0-.87.09-.87,0S332.34,231.29,332.93,231.22Z" style="fill:#ff9a6c"></path><path d="M321,262.72l-3.43,43.76s-4.25,40.82-5.49,47.53-13.46,35.3,12.09,40.43c20.47,4.12,29.94-24.25,29.6-36.18-.25-8.57-5.23-108.2-5.23-108.2Z" style="fill:#ffbf9d"></path><path d="M320.88,274.23c.14,0-1.9,20.87-4.56,46.57s-4.94,46.54-5.09,46.53,1.9-20.87,4.57-46.58S320.74,274.22,320.88,274.23Z" style="fill:#ff9a6c"></path><path d="M367.9,229.11a6.39,6.39,0,0,1-.89,1.1l-2.5,2.9-8.21,9.62-8.18,9.64-2.52,2.9a7.35,7.35,0,0,1-1,1,6.9,6.9,0,0,1,.82-1.15c.55-.72,1.36-1.74,2.38-3,2-2.52,4.88-6,8.08-9.75s6.14-7.13,8.32-9.53c1.09-1.19,2-2.14,2.64-2.79A7.65,7.65,0,0,1,367.9,229.11Z" style="fill:#ff9a6c"></path><path d="M159.82,359.07l-17.61,2.36.34-15.9-40-14.69c-3.26,19.55-9,57-7.92,66.66,1.17,10.64,12.61,22.2,33.21,16.7,10.4-2.78,48.13-31.84,48.13-31.84Z" style="fill:#ffbf9d"></path><path d="M143.08,361.17c0,.12-2.29-.21-6,0a26.73,26.73,0,0,0-3,.33c-1.08.13-2.2.41-3.39.67a42.23,42.23,0,0,0-7.44,2.68,41.61,41.61,0,0,0-6.72,4.16,34.26,34.26,0,0,0-2.64,2.23,28.29,28.29,0,0,0-2.12,2.14c-2.49,2.73-3.65,4.72-3.75,4.66a9.43,9.43,0,0,1,.81-1.4,14.49,14.49,0,0,1,1.08-1.55c.46-.59.94-1.28,1.58-2a26.53,26.53,0,0,1,2.11-2.2,32.52,32.52,0,0,1,2.63-2.3,36.72,36.72,0,0,1,14.35-6.92,31.91,31.91,0,0,1,3.44-.63,24.56,24.56,0,0,1,3-.28,23.67,23.67,0,0,1,2.51,0,15.94,15.94,0,0,1,1.89.12A11,11,0,0,1,143.08,361.17Z" style="fill:#ff9a6c"></path><path d="M205.73,377.14c10.28.3,18.54,3,18.45,6.05s-8.49,5.25-18.77,5-18.54-3-18.45-6S195.45,376.85,205.73,377.14Z" style="fill:#ebebeb"></path><path d="M224.18,383.19a2.29,2.29,0,0,0-.19-.77,4.2,4.2,0,0,0-1.62-1.62,23.92,23.92,0,0,0-8.23-2.7,61.12,61.12,0,0,0-13-.78,45.14,45.14,0,0,0-7.59.95,20,20,0,0,0-3.8,1.21,8.09,8.09,0,0,0-1.72,1,1.92,1.92,0,0,0-.1,3.25,7.8,7.8,0,0,0,1.66,1.12,20.46,20.46,0,0,0,3.72,1.44,44.56,44.56,0,0,0,7.53,1.38,60.56,60.56,0,0,0,13,0,23.77,23.77,0,0,0,8.37-2.22,4.22,4.22,0,0,0,1.71-1.53,2.72,2.72,0,0,0,.23-.75.74.74,0,0,1,0,.21,1.34,1.34,0,0,1-.17.59,4.14,4.14,0,0,1-1.69,1.6,23.18,23.18,0,0,1-8.42,2.33,59.13,59.13,0,0,1-13,.1,45.25,45.25,0,0,1-7.59-1.38,20.39,20.39,0,0,1-3.81-1.46,7.86,7.86,0,0,1-1.73-1.17,2.2,2.2,0,0,1-.48-3.17,2.14,2.14,0,0,1,.59-.53,7.76,7.76,0,0,1,1.79-1.08,20.22,20.22,0,0,1,3.89-1.23,44.59,44.59,0,0,1,7.64-1,59.05,59.05,0,0,1,13,.86,23.5,23.5,0,0,1,8.27,2.81,4.13,4.13,0,0,1,1.59,1.7,1.39,1.39,0,0,1,.14.6A.58.58,0,0,1,224.18,383.19Z" style="fill:#263238"></path><ellipse cx="205.45" cy="340.94" rx="15.89" ry="51.54" transform="translate(-141.31 536.41) rotate(-88.34)" style="fill:#ebebeb"></ellipse><path d="M154,339.15c-.68,23.52,22.15,44.52,50.71,45.34s51.66-19.32,52.34-42.81Z" style="fill:#ebebeb"></path><path d="M253,342.82c-.15,5.32-21.11,11.89-49.1,11.08-26.1-.76-44.45-7.76-45.75-12.66-2-7.54,22.51-14.17,48.61-13.5C233.12,328.43,253.19,337.76,253,342.82Z" style="fill:#e0e0e0"></path><path d="M160,343c7.36,5.85,24.85,10.06,45,10.65,22,.64,40.8-3.53,47.13-9.84-4.22-7.32-22.76-13.25-45.14-13.9C182.91,329.21,162.63,335.12,160,343Z" style="fill:#FF725E"></path><path d="M214.7,370.69a5.81,5.81,0,0,1-1.1-.14,13.9,13.9,0,0,1-4.75-2.53c-1.9-1.33-3.85-2.69-5.79-2.52a8.21,8.21,0,0,0-3.5,1.53,7.57,7.57,0,0,1-4.27,1.59c-1.77-.09-3.1-1.29-4.37-2.41a7.8,7.8,0,0,0-3.7-2.26c-1.67-.28-3.23.55-4.89,1.44s-3.58,1.89-5.53,1.4-3.07-2.25-4.11-3.94-1.92-3.08-3.52-3.65a8.56,8.56,0,0,0-4-.07c-1.78.23-3.61.49-5.06-.75a5.6,5.6,0,0,1-.92-1.15c-.6-.94-1.08-1.53-1.67-1.29l-.26-.54c1.13-.47,1.87.65,2.47,1.51a5.21,5.21,0,0,0,.8,1c1.23,1,2.85.83,4.56.59a8.86,8.86,0,0,1,4.31.13c1.81.65,2.84,2.3,3.83,3.91s2,3.22,3.74,3.66,3.34-.44,5.06-1.35,3.41-1.83,5.3-1.51a8.35,8.35,0,0,1,4,2.42c1.19,1.06,2.45,2.17,4,2.25a6.89,6.89,0,0,0,3.9-1.5,8.69,8.69,0,0,1,3.81-1.62c2.17-.2,4.23,1.24,6.19,2.63a13.73,13.73,0,0,0,4.52,2.43c2.58.55,4.3-.84,6.12-2.31s3.63-2.94,6.4-2.69a10.9,10.9,0,0,1,4.08,1.67,8.81,8.81,0,0,0,3.72,1.48c1.95,0,3.26-1.62,4.65-3.28,1.22-1.45,2.47-2.93,4.23-3.48,2-.63,5,.5,7,1.25l-.22.56c-1.78-.65-4.74-1.8-6.54-1.24-1.58.5-2.78,1.93-3.94,3.31-1.42,1.7-2.89,3.45-5.12,3.5-1.25,0-2.63-.75-4.08-1.57a10.5,10.5,0,0,0-3.81-1.58c-2.5-.22-4.17,1.12-5.94,2.55C218.65,369.42,217,370.76,214.7,370.69Z" style="fill:#fff"></path><path d="M233.62,364.19a.78.78,0,0,0,.81-.73.79.79,0,0,0-1.57,0A.78.78,0,0,0,233.62,364.19Z" style="fill:#fff"></path><path d="M214.64,366.08h.13a.61.61,0,0,0,.3-.05.75.75,0,0,0,.43-.39.45.45,0,0,0,.07-.28v-.2a.7.7,0,0,0-.2-.34l-.15-.12a.77.77,0,0,0-.39-.11h-.15a.54.54,0,0,0-.31.06.61.61,0,0,0-.26.15.55.55,0,0,0-.17.23.59.59,0,0,0-.07.29v.2a.65.65,0,0,0,.19.33l.15.12a.93.93,0,0,0,.4.12Z" style="fill:#fff"></path><path d="M225.69,370.44a.75.75,0,1,0-.76-.77A.76.76,0,0,0,225.69,370.44Z" style="fill:#fff"></path><path d="M250.18,359.57a.75.75,0,1,0-.76-.77A.76.76,0,0,0,250.18,359.57Z" style="fill:#fff"></path><path d="M243.67,366.92a.76.76,0,0,0,.8-.72.78.78,0,0,0-.76-.78.79.79,0,0,0-.81.73A.77.77,0,0,0,243.67,366.92Z" style="fill:#fff"></path><path d="M203.47,370.1a.76.76,0,0,0,.81-.72.79.79,0,1,0-.81.72Z" style="fill:#fff"></path><path d="M194.56,364a.76.76,0,0,0,.8-.72.79.79,0,1,0-.8.72Z" style="fill:#fff"></path><path d="M185.84,368.74a.77.77,0,0,0,.8-.73.78.78,0,1,0-.8.73Z" style="fill:#fff"></path><path d="M178.1,361.54a.76.76,0,0,0,.8-.73.76.76,0,0,0-.76-.77.76.76,0,0,0-.8.73A.77.77,0,0,0,178.1,361.54Z" style="fill:#fff"></path><path d="M167.15,363.66a.75.75,0,1,0-.76-.77A.76.76,0,0,0,167.15,363.66Z" style="fill:#fff"></path><path d="M163,356.51a.77.77,0,0,0,.81-.73.79.79,0,1,0-.81.73Z" style="fill:#fff"></path><path d="M257,342.43a6.48,6.48,0,0,0-.43-2.07,7.44,7.44,0,0,0-1.39-2.23,14.32,14.32,0,0,0-2.76-2.44,38.46,38.46,0,0,0-9.34-4.53,89.75,89.75,0,0,0-13.49-3.53,144.68,144.68,0,0,0-16.88-2.11,167.24,167.24,0,0,0-19.52-.21c-3.43.17-6.94.47-10.5.92a97.85,97.85,0,0,0-10.79,1.93,51.17,51.17,0,0,0-10.62,3.62,19.84,19.84,0,0,0-4.66,3.05,8.61,8.61,0,0,0-1.72,2.1,5.05,5.05,0,0,0-.15,5.07,9,9,0,0,0,1.6,2.2,20.08,20.08,0,0,0,4.5,3.32,52.45,52.45,0,0,0,10.39,4.24,102,102,0,0,0,10.66,2.55c3.53.67,7,1.15,10.44,1.52a167.07,167.07,0,0,0,19.5.93,145.67,145.67,0,0,0,17-1.14,90.5,90.5,0,0,0,13.68-2.73,39,39,0,0,0,9.58-4,14,14,0,0,0,2.9-2.28,7.6,7.6,0,0,0,1.52-2.14,6.36,6.36,0,0,0,.54-2l0,.54c0,.08,0,.18,0,.29a1.27,1.27,0,0,1-.09.36c0,.12-.08.27-.11.42l-.2.46a7.31,7.31,0,0,1-1.51,2.17,14.21,14.21,0,0,1-2.9,2.32,39,39,0,0,1-9.6,4.05,90.5,90.5,0,0,1-13.69,2.78,143.77,143.77,0,0,1-17.1,1.19,167.73,167.73,0,0,1-19.54-.9c-3.42-.37-6.92-.86-10.46-1.52a99.69,99.69,0,0,1-10.7-2.55,52.68,52.68,0,0,1-10.47-4.28A20.7,20.7,0,0,1,156,344.4a9.14,9.14,0,0,1-1.65-2.28,5.34,5.34,0,0,1,.15-5.33,9.2,9.2,0,0,1,1.78-2.17,20.74,20.74,0,0,1,4.77-3.11,53,53,0,0,1,10.69-3.64A99.07,99.07,0,0,1,182.63,326c3.57-.47,7.09-.74,10.53-.91a165.8,165.8,0,0,1,19.56.23,142.74,142.74,0,0,1,16.87,2.15A91.5,91.5,0,0,1,243.11,331a38.67,38.67,0,0,1,9.34,4.6,14.28,14.28,0,0,1,2.77,2.48,7.21,7.21,0,0,1,1.37,2.26c.07.16.13.32.18.47a4,4,0,0,1,.09.42c0,.12.05.25.07.36a1.45,1.45,0,0,1,0,.3A4.42,4.42,0,0,1,257,342.43Z" style="fill:#263238"></path><path d="M206.81,327.73h.53l1.56.05c1.38,0,3.42.15,6,.39s5.79.63,9.44,1.28a97.75,97.75,0,0,1,12.23,3,67.22,67.22,0,0,1,6.83,2.53,34.39,34.39,0,0,1,6.79,3.8,8.7,8.7,0,0,1,2.7,3c.06.16.11.32.16.48a2.22,2.22,0,0,1,.06.51,2.5,2.5,0,0,1-.21,1,5.11,5.11,0,0,1-1.3,1.67,16.24,16.24,0,0,1-3.68,2.32,40.4,40.4,0,0,1-4.2,1.68,73,73,0,0,1-9.14,2.37c-3.15.63-6.44,1.13-9.78,1.49a152.45,152.45,0,0,1-20.83.8A144.11,144.11,0,0,1,183.25,352c-3.26-.57-6.48-1.3-9.65-2.17a60.86,60.86,0,0,1-8.88-3.17,25.54,25.54,0,0,1-3.93-2.2,9.1,9.1,0,0,1-1.67-1.41,4.26,4.26,0,0,1-1.13-1.79,3.79,3.79,0,0,1,.1-2,2.76,2.76,0,0,1,.2-.47,4.92,4.92,0,0,1,.24-.45,5.28,5.28,0,0,1,.62-.81,12.86,12.86,0,0,1,3.2-2.49,36.92,36.92,0,0,1,7.24-3c2.31-.72,4.67-1.33,7.06-1.82a113.43,113.43,0,0,1,12.46-1.86c3.7-.36,6.92-.51,9.52-.59,5.24-.14,8.16,0,8.16,0l-.54,0h-1.57c-1.37,0-3.41,0-6,.09s-5.81.26-9.5.63a115.49,115.49,0,0,0-12.43,1.92q-3.57.75-7,1.83a37.14,37.14,0,0,0-7.17,3,12.45,12.45,0,0,0-3.12,2.44,6.57,6.57,0,0,0-.6.79,2.78,2.78,0,0,0-.22.42,2.25,2.25,0,0,0-.19.45,3.47,3.47,0,0,0,0,1.89,4,4,0,0,0,1,1.68,10.23,10.23,0,0,0,1.63,1.36,25,25,0,0,0,3.89,2.17,60.17,60.17,0,0,0,8.81,3.11q4.75,1.31,9.63,2.16A144.86,144.86,0,0,0,204,353.74a153.47,153.47,0,0,0,20.79-.8c3.33-.36,6.6-.85,9.75-1.48a74.07,74.07,0,0,0,9.1-2.35,35.05,35.05,0,0,0,4.16-1.67,15.57,15.57,0,0,0,3.63-2.26,4.94,4.94,0,0,0,1.21-1.56,2.12,2.12,0,0,0,0-1.81,8.25,8.25,0,0,0-2.62-2.87,33.72,33.72,0,0,0-6.75-3.78,67,67,0,0,0-6.77-2.52,99.46,99.46,0,0,0-12.19-3c-3.65-.68-6.83-1.07-9.43-1.32s-4.63-.38-6-.45l-1.56-.05Z" style="fill:#263238"></path><path d="M175.46,340.85a2.33,2.33,0,1,1-2.5,2.26A2.38,2.38,0,0,1,175.46,340.85Z" style="fill:#455a64"></path><path d="M174.2,344.07a1.14,1.14,0,0,1-.32-.37,1.57,1.57,0,0,1,.48-2.08,1,1,0,0,1,.44-.22,2.61,2.61,0,0,0-.38.28,1.84,1.84,0,0,0-.56.92,2.3,2.3,0,0,0,.34,1.47Z" style="fill:#fff"></path><path d="M171.47,342.41a6.87,6.87,0,0,0,6.52.79c.36-.15.84-.33,1.13-.06a.57.57,0,0,1,.15.63,1.69,1.69,0,0,1-.4.56,5.41,5.41,0,0,1-6,.88,3,3,0,0,1-1.18-1,1.55,1.55,0,0,1-.18-1.43" style="fill:#FF725E"></path><path d="M227.15,347.41a2.44,2.44,0,1,1-2.37-2.4,2.39,2.39,0,0,1,2.37,2.4Z" style="fill:#455a64"></path><path d="M223.52,348.22a1,1,0,0,1-.32-.36,1.59,1.59,0,0,1,.46-2.09.86.86,0,0,1,.44-.21,2.1,2.1,0,0,0-.38.28,1.66,1.66,0,0,0-.44,2C223.41,348.08,223.54,348.21,223.52,348.22Z" style="fill:#fff"></path><path d="M220.79,346.57a6.88,6.88,0,0,0,6.51.79c.38-.15.85-.32,1.15-.06a.61.61,0,0,1,.14.63,1.69,1.69,0,0,1-.4.56,5.41,5.41,0,0,1-6,.88,3,3,0,0,1-1.18-1,1.52,1.52,0,0,1-.17-1.43" style="fill:#FF725E"></path><path d="M189,346.83a1.88,1.88,0,1,1-1.82-1.85A1.83,1.83,0,0,1,189,346.83Z" style="fill:#455a64"></path><path d="M186.24,347.46a.74.74,0,0,1-.25-.28,1.22,1.22,0,0,1,.35-1.6.68.68,0,0,1,.34-.16,1.37,1.37,0,0,0-.53,1.91l.09.13Z" style="fill:#fff"></path><path d="M184.16,346.2a5.25,5.25,0,0,0,5,.58c.28-.11.64-.25.87,0a.46.46,0,0,1,.11.48,1.19,1.19,0,0,1-.3.43,4.13,4.13,0,0,1-4.57.67,2.41,2.41,0,0,1-.9-.74,1.2,1.2,0,0,1-.13-1.1" style="fill:#FF725E"></path><path d="M232.67,338.8a1.78,1.78,0,1,1-1.91,1.72A1.82,1.82,0,0,1,232.67,338.8Z" style="fill:#455a64"></path><path d="M231.7,341.25a.75.75,0,0,1-.25-.27,1.2,1.2,0,0,1,.35-1.6.65.65,0,0,1,.34-.16,1.35,1.35,0,0,0-.53,1.9Z" style="fill:#fff"></path><path d="M229.62,340a5.27,5.27,0,0,0,5,.59c.28-.12.63-.25.87-.06a.47.47,0,0,1,.1.49,1.16,1.16,0,0,1-.3.43,4.11,4.11,0,0,1-4.56.67,2.18,2.18,0,0,1-.91-.76,1.12,1.12,0,0,1-.13-1.09" style="fill:#FF725E"></path><path d="M201.33,347.56a3.8,3.8,0,1,1-3.69-3.73h0A3.71,3.71,0,0,1,201.33,347.56Z" style="fill:#ff9a6c"></path><g style="opacity:0.30000000000000004"><path d="M201.33,347.56a3.8,3.8,0,1,1-3.69-3.73h0A3.71,3.71,0,0,1,201.33,347.56Z" style="fill:#FF725E"></path></g><path d="M200.59,347.54a3.8,3.8,0,1,1-3.69-3.74h0A3.72,3.72,0,0,1,200.59,347.54Z" style="fill:#ff9a6c"></path><g style="opacity:0.30000000000000004"><path d="M199,347.49a2.2,2.2,0,0,1-4.4-.13,2.2,2.2,0,0,1,4.4.13Z" style="fill:#fff"></path></g><path d="M198.25,347.47a1.41,1.41,0,1,1-1.37-1.39,1.38,1.38,0,0,1,1.37,1.39Z" style="fill:#ff9a6c"></path><path d="M204,348.53a1.43,1.43,0,0,0-1.44-.75c-1.72,0-3.21,1.38-4.94,1.33a13.63,13.63,0,0,1-2.89-.79,6,6,0,0,0-5,1l.18.24a10.75,10.75,0,0,0,13.24.56C203.69,349.7,204.22,349.13,204,348.53Z" style="fill:#FF725E"></path><path d="M218.73,336.58a4.75,4.75,0,0,1,5.79-3.19,4.51,4.51,0,0,1,3.35,5.53,4.74,4.74,0,0,1-5.79,3.19A4.51,4.51,0,0,1,218.73,336.58Z" style="fill:#ff9a6c"></path><g style="opacity:0.30000000000000004"><path d="M218.73,336.58a4.75,4.75,0,0,1,5.79-3.19,4.51,4.51,0,0,1,3.35,5.53,4.74,4.74,0,0,1-5.79,3.19A4.51,4.51,0,0,1,218.73,336.58Z" style="fill:#FF725E"></path></g><path d="M217.81,336.54a4.75,4.75,0,0,1,5.79-3.18,4.51,4.51,0,0,1,3.35,5.53,4.74,4.74,0,0,1-5.78,3.19A4.52,4.52,0,0,1,217.81,336.54Z" style="fill:#ff9a6c"></path><g style="opacity:0.30000000000000004"><path d="M222.49,335.09a2.62,2.62,0,1,1-2.82,2.54A2.69,2.69,0,0,1,222.49,335.09Z" style="fill:#fff"></path></g><path d="M224.16,337.76a1.71,1.71,0,0,1-1.79,1.63,1.68,1.68,0,1,1,.08-3.35h0A1.71,1.71,0,0,1,224.16,337.76Z" style="fill:#ff9a6c"></path><path d="M231.36,339.09a1.75,1.75,0,0,0-1.78-.94c-2.15,0-4,1.72-6.15,1.65a16.49,16.49,0,0,1-3.61-1,7.4,7.4,0,0,0-6.24,1.19l.23.3a13.4,13.4,0,0,0,16.49.7C231,340.55,231.61,339.83,231.36,339.09Z" style="fill:#FF725E"></path><path d="M217.41,345.33c0,1.2-1.74,2.07-3.82,2s-3.79-1.08-3.76-2.28c0-.43,0-1.08,0-1.08a7.11,7.11,0,0,1,3.89-1.36c1.65.05,3.5.33,3.72,1.58Z" style="fill:#ff9a6c"></path><g style="opacity:0.30000000000000004"><path d="M217.41,345.33c0,1.2-1.74,2.07-3.82,2s-3.79-1.08-3.76-2.28c0-.43,0-1.08,0-1.08a7.11,7.11,0,0,1,3.89-1.36c1.65.05,3.5.33,3.72,1.58Z" style="fill:#FF725E"></path></g><path d="M217.44,344.31c0,1.2-1.78,2.12-3.88,2.06s-3.79-1.08-3.75-2.28,1.77-2.12,3.87-2.06S217.47,343.11,217.44,344.31Z" style="fill:#ff9a6c"></path><g style="opacity:0.30000000000000004"><path d="M215.9,344.27c0,.69-1,1.22-2.25,1.19s-2.19-.63-2.17-1.32,1-1.23,2.25-1.2S215.92,343.57,215.9,344.27Z" style="fill:#fff"></path></g><path d="M215.08,344.24c0,.44-.65.79-1.44.77s-1.41-.41-1.4-.85.65-.78,1.44-.76S215.09,343.8,215.08,344.24Z" style="fill:#ff9a6c"></path><path d="M239.84,346.33c0,1.2-1.73,2.08-3.82,2s-3.79-1.09-3.75-2.29c0-.42,0-1.07,0-1.07a7.05,7.05,0,0,1,3.9-1.37c1.63.05,3.49.33,3.72,1.57C239.88,345.19,239.85,346.07,239.84,346.33Z" style="fill:#ff9a6c"></path><g style="opacity:0.30000000000000004"><path d="M239.84,346.33c0,1.2-1.73,2.08-3.82,2s-3.79-1.09-3.75-2.29c0-.42,0-1.07,0-1.07a7.05,7.05,0,0,1,3.9-1.37c1.63.05,3.49.33,3.72,1.57C239.88,345.19,239.85,346.07,239.84,346.33Z" style="fill:#FF725E"></path></g><path d="M239.87,345.31c0,1.2-1.77,2.12-3.88,2.06s-3.78-1.08-3.75-2.28,1.77-2.11,3.88-2S239.91,344.12,239.87,345.31Z" style="fill:#ff9a6c"></path><g style="opacity:0.30000000000000004"><path d="M238.31,345.27c0,.69-1,1.23-2.25,1.19s-2.2-.63-2.18-1.32,1-1.23,2.26-1.19S238.33,344.6,238.31,345.27Z" style="fill:#fff"></path></g><path d="M237.51,345.25c0,.44-.65.78-1.43.76s-1.41-.4-1.4-.85.65-.78,1.44-.76S237.52,344.8,237.51,345.25Z" style="fill:#ff9a6c"></path><path d="M193.43,340.7c-.06,1.92-2.78,3.32-6.16,3.22s-6.08-1.73-6-3.66c0-.68,0-1.73,0-1.73a11.37,11.37,0,0,1,6.25-2.21c2.63.07,5.63.53,6,2.53C193.48,338.87,193.44,340.3,193.43,340.7Z" style="fill:#ff9a6c"></path><g style="opacity:0.30000000000000004"><path d="M193.43,340.7c-.06,1.92-2.78,3.32-6.16,3.22s-6.08-1.73-6-3.66c0-.68,0-1.73,0-1.73a11.37,11.37,0,0,1,6.25-2.21c2.63.07,5.63.53,6,2.53C193.48,338.87,193.44,340.3,193.43,340.7Z" style="fill:#FF725E"></path></g><path d="M193.47,339.06c-.05,1.92-2.84,3.4-6.22,3.3s-6.07-1.73-6-3.65,2.84-3.41,6.22-3.31S193.53,337.14,193.47,339.06Z" style="fill:#ff9a6c"></path><g style="opacity:0.30000000000000004"><path d="M187.48,336.87c2,.06,3.53,1,3.5,2.12s-1.65,2-3.61,1.91-3.53-1-3.5-2.12S185.52,336.81,187.48,336.87Z" style="fill:#fff"></path></g><path d="M187.46,337.6c1.26,0,2.25.64,2.23,1.35s-1.05,1.26-2.3,1.22-2.25-.64-2.23-1.35S186.21,337.56,187.46,337.6Z" style="fill:#ff9a6c"></path><path d="M205.21,349.4a.43.43,0,0,0-.29.55.45.45,0,0,0,.57.28.42.42,0,0,0,.29-.27.46.46,0,0,0-.35-.57l-.14,0" style="fill:#455a64"></path><path d="M240.29,341.1a.45.45,0,0,0-.44.46.46.46,0,0,0,.49.42.44.44,0,0,0,.44-.47.45.45,0,0,0-.41-.41" style="fill:#455a64"></path><path d="M189.85,332.69a.45.45,0,0,0-.27.59.57.57,0,0,0,.08.13.5.5,0,0,0,.68,0,.42.42,0,0,0,.08-.12.45.45,0,0,0-.31-.59.57.57,0,0,0-.18,0" style="fill:#455a64"></path><path d="M205.74,336.67a.43.43,0,0,0-.29.55.47.47,0,0,0,.58.28.46.46,0,0,0,.29-.27.47.47,0,0,0-.32-.59l-.17,0" style="fill:#455a64"></path><path d="M229.18,343.53a.44.44,0,0,0-.3.55.46.46,0,0,0,.58.28.44.44,0,0,0,.29-.27.47.47,0,0,0-.35-.57h-.14" style="fill:#455a64"></path><path d="M178.12,346.45a.44.44,0,0,0-.43.46.45.45,0,0,0,.49.42.44.44,0,0,0,.43-.47.44.44,0,0,0-.41-.41" style="fill:#455a64"></path><g style="opacity:0.2"><path d="M178,334.8a5.18,5.18,0,0,0-2.35,0,27.84,27.84,0,0,0-8.81,3.55,4.88,4.88,0,0,0-2.36,3,3.52,3.52,0,0,0,1,2.83,7.34,7.34,0,0,0,2.65,1.73,3.58,3.58,0,0,0,1.61.36,1.42,1.42,0,0,0,1.28-.84c.42-1.24-1.68-2.25-1.39-3.53s2.46-1.13,3.2-2.24c.26-.38.32-.87.58-1.25.62-.87,1.95-.78,3-.7s2.51-.14,2.73-1.16A1.61,1.61,0,0,0,178,334.8Z" style="fill:#fff"></path></g><g style="opacity:0.2"><path d="M182.61,345.94a1.14,1.14,0,1,1-1.11-1.12h0a1.11,1.11,0,0,1,1.1,1.12Z" style="fill:#fff"></path></g><g style="opacity:0.2"><path d="M200.13,351.17a1.52,1.52,0,0,0-1.11,0c-.35.11-.69.29-1.06.38a3.91,3.91,0,0,1-2.33-.4,8.58,8.58,0,0,0-2.25-.78,2,2,0,0,0-2.06.86c-.15.57,1.94.6,3.15.69l4.93.41c.39,0,.86,0,1.07-.29A.64.64,0,0,0,200.13,351.17Z"></path></g><g style="opacity:0.2"><path d="M218,347a2.78,2.78,0,0,0-.76.73,7.44,7.44,0,0,1-6.2,2.55h-.22c-.15-.25-.63,0-.59.28s.32.48.61.61a3.59,3.59,0,0,0,2.5.08c.41-.14.78-.35,1.19-.48a6.46,6.46,0,0,1,1.7-.17,5.35,5.35,0,0,0,2.46-.53,2.05,2.05,0,0,0,1.18-2A1.46,1.46,0,0,0,218,347Z"></path></g><g style="opacity:0.2"><path d="M226.44,341.31a2.82,2.82,0,0,0-1.08.13c-2.25.57-4.19,1.11-6.49.74-.17-.09-.38.15-.33.33a.77.77,0,0,0,.42.41,3.72,3.72,0,0,0,2.25.66,11.11,11.11,0,0,0,1.53-.55c1.19-.34,2.51.14,3.69-.26.4-.13.81-.46.77-.87A.83.83,0,0,0,226.44,341.31Z"></path></g><g style="opacity:0.2"><path d="M203.57,331.19l.82.13a68.06,68.06,0,0,0-10.86.67c-.28.05-.63.12-.73.35a.6.6,0,0,0,.33.76,2.06,2.06,0,0,0,.92.12l8.72-.29c1.49-.06,3.25-.25,4-1.48A9.27,9.27,0,0,0,203.57,331.19Z"></path></g><g style="opacity:0.2"><path d="M246.89,340.6a17.61,17.61,0,0,0-6-3.25l-7-2.71c-.94-.36-2.1-.7-2.87-.08l0,.6a7.41,7.41,0,0,1,4.16,1.68,4.33,4.33,0,0,0,1.22,1.16c1,.44,2.34-.34,3.24.27.45.31.6.88,1.06,1.23.66.51,1.65.27,2.49.53a2,2,0,0,1,1.14,2.6,2,2,0,0,1-.34.53c-.51.49-1.4.91-1.24,1.59s1.13.73,1.86.63c1.35-.2,2.92-.59,3.36-1.81A3.07,3.07,0,0,0,246.89,340.6Z"></path></g><path d="M257,341.62V342c0,.25,0,.63,0,1.11s-.07,1.09-.15,1.79a10,10,0,0,1-.13,1.14c-.06.41-.14.84-.22,1.3a40,40,0,0,1-5.87,14.55A50.12,50.12,0,0,1,233.33,378a56,56,0,0,1-6.29,3,54.26,54.26,0,0,1-7,2.24,55.91,55.91,0,0,1-7.5,1.26,57.12,57.12,0,0,1-7.85.09,63.22,63.22,0,0,1-28.19-8.6c-.5-.29-1-.59-1.44-.89l-1.4-.91c-.89-.63-1.8-1.25-2.63-1.92a53.64,53.64,0,0,1-4.69-4.07,46.88,46.88,0,0,1-6.89-8.59,37.4,37.4,0,0,1-5.29-14.76c-.06-.47-.12-.9-.16-1.31s0-.79-.07-1.15a17.13,17.13,0,0,1-.06-1.8q0-.72,0-1.11c0-.12,0-.25,0-.37v.37l0,1.11c0,.49,0,1.09.09,1.8,0,.35.06.74.08,1.14s.12.84.18,1.3a37.5,37.5,0,0,0,5.37,14.66,46.65,46.65,0,0,0,6.88,8.55,53.05,53.05,0,0,0,4.67,4c.84.67,1.73,1.25,2.62,1.9l1.4.9a14.08,14.08,0,0,0,1.43.88,63.06,63.06,0,0,0,28.06,8.53,56.41,56.41,0,0,0,7.8-.09A55.14,55.14,0,0,0,220,383a57.94,57.94,0,0,0,6.92-2.2,55.24,55.24,0,0,0,6.25-3,50.09,50.09,0,0,0,17.22-16,40.49,40.49,0,0,0,5.94-14.46c.08-.45.16-.88.23-1.29s.1-.78.14-1.13c.09-.71.17-1.31.18-1.79s.06-.85.07-1.11A2.06,2.06,0,0,1,257,341.62Z" style="fill:#263238"></path><path d="M222.21,344.48s-2.39,1.49-1.48,3.27,3.34,4.19,8,2.37,2-7.17,2-7.17S227.82,341,222.21,344.48Z" style="fill:#e0e0e0"></path><g style="opacity:0.21"><path d="M227.48,347.69a6.15,6.15,0,0,0,3.48-4.12,4.82,4.82,0,0,0-.25-.61s-2.89-2-8.5,1.55c0,0-2.39,1.49-1.48,3.28l.2.37A9,9,0,0,0,227.48,347.69Z" style="fill:#263238"></path></g><path d="M222,343.1l1.16,3.34A4.89,4.89,0,0,0,227,346c1.73-1.11,1.31-1.76,1.31-1.76l-1.15-3.43a8.19,8.19,0,0,0-4,.73C221.32,342.51,222,343.1,222,343.1Z" style="fill:#e0e0e0"></path><g style="opacity:0.15"><path d="M223.44,346c-.17.07-.58-.48-.86-1.26s-.27-1.49-.08-1.51.44.56.71,1.31S223.62,345.89,223.44,346Z" style="fill:#fff"></path></g><g style="opacity:0.15"><path d="M226.54,341.26c0,.08-.23.22-.64.32s-1,.2-1.6.32a7.71,7.71,0,0,0-.83.21,3.45,3.45,0,0,0-.63.25c-.33.18-.53.35-.64.3s0-.33.32-.66a2.56,2.56,0,0,1,.68-.44,4.11,4.11,0,0,1,.92-.29,7.84,7.84,0,0,1,1.68-.14C226.26,341.13,226.52,341.16,226.54,341.26Z" style="fill:#fff"></path></g><g style="opacity:0.14"><path d="M231,347.87s0,.2-.11.46a3.15,3.15,0,0,1-.8.83,6.24,6.24,0,0,1-1.39.87c-.28.14-.57.26-.88.39l-.46.17a4.61,4.61,0,0,1-.53.15,6,6,0,0,1-2,0,4.84,4.84,0,0,1-1.61-.57,6.85,6.85,0,0,1-1-.62c-.2-.18-.31-.31-.29-.35s.17,0,.41.1.58.27,1,.44a5.52,5.52,0,0,0,1.49.37,6,6,0,0,0,1.84,0,3.45,3.45,0,0,0,.46-.12l.46-.17c.3-.1.59-.21.86-.32a10.57,10.57,0,0,0,1.39-.69,5.54,5.54,0,0,0,.85-.58C230.85,348,231,347.85,231,347.87Z" style="fill:#263238"></path></g><path d="M173.1,335.91s-2.85,0-3.08,2,.47,5.23,5.41,6.08,5.72-5,5.72-5S179.8,335.84,173.1,335.91Z" style="fill:#e0e0e0"></path><g style="opacity:0.21"><path d="M175.76,341.32a6.65,6.65,0,0,0,5.26-1.69c.09-.39.13-.66.13-.66s-1.35-3.13-8.06-3.06c0,0-2.86,0-3.09,2v.41A8.73,8.73,0,0,0,175.76,341.32Z" style="fill:#263238"></path></g><path d="M173.69,334.63l-.89,3.4a4.83,4.83,0,0,0,3.46,1.6c2.08-.05,2.1-.8,2.1-.8l.95-3.47a8,8,0,0,0-3.81-1.45C173.45,333.8,173.69,334.63,173.69,334.63Z" style="fill:#e0e0e0"></path><g style="opacity:0.15"><path d="M173.31,337.79c-.18,0-.22-.7,0-1.5s.61-1.39.78-1.31.06.69-.12,1.46S173.5,337.82,173.31,337.79Z" style="fill:#fff"></path></g><g style="opacity:0.15"><path d="M178.58,335.41c0,.08-.31.06-.72-.07s-1-.34-1.54-.55a7.58,7.58,0,0,0-.81-.25,4.92,4.92,0,0,0-.67-.1c-.38,0-.63,0-.68-.06s.16-.28.64-.39a2.2,2.2,0,0,1,.81,0,4.94,4.94,0,0,1,.94.22,8.5,8.5,0,0,1,1.51.75C178.41,335.15,178.62,335.32,178.58,335.41Z" style="fill:#fff"></path></g><g style="opacity:0.14"><path d="M178.62,343.27s-.08.19-.34.33a3.75,3.75,0,0,1-1.15.3,7.68,7.68,0,0,1-1.66,0,6.37,6.37,0,0,1-.95-.13l-.49-.08a3.08,3.08,0,0,1-.54-.16,5.62,5.62,0,0,1-1.71-1,4.66,4.66,0,0,1-1-1.3,6,6,0,0,1-.44-1c-.08-.26-.1-.41-.06-.44s.14.08.29.3.34.52.6.88a5.12,5.12,0,0,0,1.05,1.08,6.57,6.57,0,0,0,1.59.91,3.17,3.17,0,0,0,.44.12l.49.1.91.17a10,10,0,0,0,1.55.12,4.69,4.69,0,0,0,1.06-.06C178.47,343.29,178.6,343.23,178.62,343.27Z" style="fill:#263238"></path></g><path d="M184.72,379.75l-16-13.18-.78,7.42s5.74,7.74,9.66,12.52a20.91,20.91,0,0,0,9.43,6.27c5.8,3.9,18.94.69,21.81-.47s20.43-10.74,24.59-15.61-4.57-2.77-4.57-2.77l.32-1.25-.54-.73c-1.84-1-3.95-.28-5.7.72a74.5,74.5,0,0,0-8.7,6.39,5,5,0,0,0-3.17-4.78c-3.34-1.26-18.29,7.07-18.29,7.07Z" style="fill:#ffbf9d"></path><path d="M157.07,367a7.48,7.48,0,0,0,1,5c1.19,1.64,3.37,2.19,5.37,2.53a12.48,12.48,0,0,0,5.67,0,4.89,4.89,0,0,0,3.62-4,5.39,5.39,0,0,0-2-4.19c-1.14-1.12-2.84-1.3-4.11-2.28,0,0-2.09-4.19-4-5.67-.75-.71-2.53-.17-3.28.53a5.46,5.46,0,0,0-1.37,2.73A29.44,29.44,0,0,0,157.07,367Z" style="fill:#ffbf9d"></path><path d="M220.12,384.31a39.53,39.53,0,0,0,4.69-4.9,38.74,38.74,0,0,0,3.77-5.61,2.09,2.09,0,0,0,.29-1,1,1,0,0,0-.3-.72,1,1,0,0,0-.63-.31s.33-.19.77.15a1.26,1.26,0,0,1,.45.85,2.19,2.19,0,0,1-.25,1.23,30.59,30.59,0,0,1-3.7,5.79,32.3,32.3,0,0,1-4.86,4.85,11,11,0,0,1-2.35,1.59A23.72,23.72,0,0,1,220.12,384.31Z" style="fill:#ff9a6c"></path><path d="M192.15,391.65a34.45,34.45,0,0,0,4.79-1,38.79,38.79,0,0,0,5.58-2.12,35.37,35.37,0,0,0,5.11-3.08,34,34,0,0,0,3.72-3.17c2-2,3-3.33,3.06-3.32a4.57,4.57,0,0,1-.66,1,10.81,10.81,0,0,1-.88,1.14,18.8,18.8,0,0,1-1.26,1.42,31.18,31.18,0,0,1-3.69,3.3,34.56,34.56,0,0,1-5.2,3.17,34.18,34.18,0,0,1-5.7,2.1,29.66,29.66,0,0,1-4.86.88c-.7.09-1.35.08-1.9.11s-1,0-1.43,0a7.1,7.1,0,0,1-1.22-.11C187.61,391.9,189.35,392,192.15,391.65Z" style="fill:#ff9a6c"></path><path d="M167.63,374.79a6,6,0,0,0,2.38-1.06,5,5,0,0,0,1.79-2.55,4.5,4.5,0,0,0-.14-3.09,4.9,4.9,0,0,0-1.64-2,7.72,7.72,0,0,0-2.25-1l.68,0a4.71,4.71,0,0,1,1.77.67,5,5,0,0,1,1.92,2.11,4.92,4.92,0,0,1,.2,3.44,5.24,5.24,0,0,1-2,2.79,5.77,5.77,0,0,1-2.6,1,5.59,5.59,0,0,1-1.87,0,1.69,1.69,0,0,1-.66-.2A14.1,14.1,0,0,0,167.63,374.79Z" style="fill:#ff9a6c"></path><path d="M166,374.94a3.11,3.11,0,0,1-.92.05,16.76,16.76,0,0,1-2.5-.2,8.32,8.32,0,0,1-3.52-1.31,6.37,6.37,0,0,1-2.5-3.87,9.4,9.4,0,0,1,.16-4.59,15.73,15.73,0,0,1,1.46-3.44c.52-.93,1-1.64,1.32-2.13a3.08,3.08,0,0,1,.56-.72c.08,0-.6,1.16-1.55,3a17.37,17.37,0,0,0-1.33,3.39,9.24,9.24,0,0,0-.11,4.36,6,6,0,0,0,2.27,3.59,8.34,8.34,0,0,0,3.3,1.34C164.68,374.81,166,374.84,166,374.94Z" style="fill:#ff9a6c"></path><path d="M176,384.74a5.23,5.23,0,0,1-1.45-1.3,14.23,14.23,0,0,1-2.46-4,14.38,14.38,0,0,1-1.06-4.57,5.08,5.08,0,0,1,.11-1.94,25.21,25.21,0,0,0,1.43,6.31A26,26,0,0,0,176,384.74Z" style="fill:#ff9a6c"></path><path d="M210.63,342.48a13.42,13.42,0,0,1-2.16-2.48c-1.38-1.89-.51-4.65-.51-4.65l-1.34-.09a15.85,15.85,0,0,0-.24,3.56l-1.83-2.49-1.66,1.21,1.92,2.63a7.83,7.83,0,0,0-3.39-1l-.54,1.32a7.17,7.17,0,0,1,4.22,1.73" style="fill:#455a64"></path><g style="opacity:0.30000000000000004"><path d="M210.63,342.48a13.42,13.42,0,0,1-2.16-2.48c-1.38-1.89-.51-4.65-.51-4.65l-1.34-.09a15.85,15.85,0,0,0-.24,3.56l-1.83-2.49-1.66,1.21,1.92,2.63a7.83,7.83,0,0,0-3.39-1l-.54,1.32a7.17,7.17,0,0,1,4.22,1.73"></path></g><path d="M201.11,342.35a2.55,2.55,0,0,1-4.11-.57,2.7,2.7,0,0,1-3.33-1.48,2.8,2.8,0,0,1,1.61-3.52,3.06,3.06,0,0,1,2.68-5.14,3.77,3.77,0,0,1,6.48-2.94,2.39,2.39,0,1,1,4.53,1.53,2.56,2.56,0,0,1,2.11,4.38,2.32,2.32,0,0,1-2.75.52,2.08,2.08,0,0,1-1.72,1.27,1.89,1.89,0,0,1-1.86-.84,2.74,2.74,0,0,1-1,2.42c-.66.62-1.28.61-2.41.42C202.33,340,202.35,341.21,201.11,342.35Z" style="fill:#455a64"></path><g style="opacity:0.30000000000000004"><path d="M205.12,331.73a3.18,3.18,0,0,1-.28-.21,2.05,2.05,0,0,0-.87-.33,1.91,1.91,0,0,0-1.31.3,1.86,1.86,0,0,0-.75,1.43,1.82,1.82,0,0,0,.2.93l.17.31L202,334a1.42,1.42,0,0,0-1.25-.06,1.37,1.37,0,0,0-.71.74,2,2,0,0,0-.09,1,.5.5,0,0,1-.09-.26,1.42,1.42,0,0,1,.06-.74,1.47,1.47,0,0,1,.75-.86,1.58,1.58,0,0,1,1.43.05l-.13.13a2,2,0,0,1-.24-1,2.1,2.1,0,0,1,.85-1.58,2,2,0,0,1,1.44-.28,1.89,1.89,0,0,1,.9.41C205.07,331.61,205.13,331.72,205.12,331.73Z"></path></g><g style="opacity:0.30000000000000004"><path d="M196.77,341s-.12-.09-.19-.31a1.22,1.22,0,0,1,.06-.87,1.27,1.27,0,0,1,.59-.65c.21-.1.36-.09.36-.07s-.12.08-.28.19a1.47,1.47,0,0,0-.48.61,1.45,1.45,0,0,0-.11.76C196.75,340.86,196.8,341,196.77,341Z"></path></g></g></svg>
